<ttFont>
<head>
    <!-- Most of this table will be recalculated by the compiler -->
    <tableVersion value="1.0"/>
    <fontRevision value="1.002"/>
    <checkSumAdjustment value="0xaa6895bd"/>
    <magicNumber value="0x5f0f3cf5"/>
    <flags value="00000000 00000011"/>
    <unitsPerEm value="1000"/>
    <created value="Fri Sep  8 14:50:25 2017"/>
    <modified value="Fri Sep  8 14:50:25 2017"/>
    <xMin value="-395"/>
    <yMin value="-326"/>
    <xMax value="2413"/>
    <yMax value="1276"/>
    <macStyle value="00000000 00000000"/>
    <lowestRecPPEM value="3"/>
    <fontDirectionHint value="2"/>
    <indexToLocFormat value="0"/>
    <glyphDataFormat value="0"/>
  </head>
          <CharString index="0">
            rmoveto
            12 103 -245 5 -83 37 -13 112 rlinecurve
            356 9 rlineto
            192 20 -74 122 -155 hhcurveto
            -145 -124 -130 -171 -179 93 -104 358 4 hvcurveto
            -204 480 rmoveto
            78 34 -54 -90 3 hvcurveto
            -69 -1 -113 -4 -59 -1 rrcurveto
            103 6 45 47 75 hhcurveto
            endchar
          </CharString>
          <CharString index="1">
            rmoveto
            60 -57 51 -175 17 vhcurveto
            7 83 rlineto
            203 hlineto
            9 82 rlineto
            -291 hlineto
            -17 -230 rlineto
            166 -12 63 -22 -32 vvcurveto
            -37 -63 -19 -177 -11 vhcurveto
            6 -88 rlineto
            224 13 102 63 82 vvcurveto
            return
          </CharString>
          <CharString index="2">
            rmoveto
            147 -18 callgsubr
            185 179 -97 101 -138 -147 -122 -126 -179 -180 97 -101 137 hvcurveto
            22 100 rmoveto
            -81 -50 69 134 122 49 61 74 80 52 -69 -133 -122 -49 -62 -75 hvcurveto
            endchar
          </CharString>
          <CharString index="3">
            rmoveto
            124 hlineto
            3 -67 callsubr
            -126 hlineto
            245 -156 rmoveto
            124 hlineto
            4 -67 callsubr
            -126 hlineto
            return
          </CharString>
          <CharString index="4">
            rmoveto
            hintmask 00111111
            -102 callgsubr
            hintmask 10011111
            -103 callgsubr
          </CharString>
          <CharString index="5">
            rmoveto
            hintmask 00111100
            128 8 -59 229 -60 227 -68 229 rlinecurve
            -176 hlineto
            hintmask 01011100
            -95 callsubr
            hintmask 10011100
            16 -66 16 -65 15 -65 rrcurveto
            hintmask 00111100
            -94 callgsubr
          </CharString>
          <CharString index="6">
            124 hlineto
            15 130 23 262 15 296 rrcurveto
            -119 hlineto
            -3 -70 -13 -416 -4 -35 rrcurveto
            -4 hlineto
            -30 112 -24 91 -31 112 rrcurveto
            -67 hlineto
            -29 -111 -19 -84 -31 -120 rrcurveto
            -4 hlineto
            -4 35 -18 416 -3 70 rrcurveto
            -123 hlineto
            14 -296 22 -262 16 -130 rrcurveto
            121 hlineto
            endchar
          </CharString>
          <CharString index="7">
            339 hlineto
            8 81 rlineto
            -121 374 hlineto
            -94 -7 rlineto
            -66 vlineto
            -126 -15 3 -71 123 3 rlineto
            -218 -132 vlineto
            return
          </CharString>
          <CharString index="8">
            rmoveto
            12 -111 rlineto
            314 16 76 127 201 vvcurveto
            90 -1 239 -2 61 vhcurveto
            17 -56 -55 10 -56 hhcurveto
            -163 -136 -112 -175 -142 88 -88 115 59 48 20 27 36 hvcurveto
            -3 -140 -31 -20 -245 -20 rrcurveto
            184 229 rmoveto
            -73 -57 52 110 102 55 53 79 30 30 -5 -10 31 hvcurveto
            -278 vlineto
            -15 -29 -33 -9 -33 hhcurveto
            endchar
          </CharString>
          <CharString index="9">
            -4 -146 -5 -114 -5 -148 rrcurveto
            -4 hlineto
            -15 48 -53 156 -13 40 rrcurveto
            -71 hlineto
            -12 -40 -51 -153 -15 -49 rrcurveto
            -5 hlineto
            -6 149 -5 112 -5 145 rrcurveto
            -119 hlineto
            10 -209 24 -223 19 -120 rrcurveto
            108 hlineto
            endchar
          </CharString>
          <CharString index="10">
            rmoveto
            32 -81 rlineto
            185 59 88 101 127 vvcurveto
            118 -74 63 -106 -98 -83 -63 -92 -130 155 -34 109 81 vhcurveto
            -15 -65 -53 -39 -140 -45 rrcurveto
            35 238 rmoveto
            45 35 27 46 54 41 -34 -79 1 vhcurveto
            -92 -49 -85 20 70 vvcurveto
            endchar
          </CharString>
          <CharString index="11">
            rmoveto
            52 -1 7 80 -60 -1 2 143 -91 -8 1 -136 -138 2 1 18 63 229 9 29 rlinecurve
            -105 7 -36 -129 -18 -142 3 -92 rlinecurve
            221 2 -1 -84 rlineto
            91 hlineto
            return
          </CharString>
          <CharString index="12">
            -69 -230 -60 -230 -59 -229 rrcurveto
            126 hlineto
            15 64 15 64 16 64 rrcurveto
            204 hlineto
            return
          </CharString>
          <CharString index="13">
            rmoveto
            58 -37 62 58 71 84 42 64 rlinecurve
            -117 55 -26 -65 -48 -97 -42 -62 rlinecurve
            234 -2 rmoveto
            58 -35 63 57 70 83 43 64 rlinecurve
            -123 48 -25 -67 -45 -87 -41 -63 rlinecurve
            return
          </CharString>
          <CharString index="14">
            73 -273 rmoveto
            -56 -27 26 33 30 24 23 38 17 hvcurveto
            54 -25 48 -23 -31 vvcurveto
            -27 -31 -23 -50 vhcurveto
            endchar
          </CharString>
          <CharString index="15">
            rmoveto
            122 79 97 140 138 -67 85 -119 -122 -79 -98 -140 -137 67 -85 119 hvcurveto
            6 381 rmoveto
            65 33 -59 -98 -90 -30 -54 -64 -65 -33 58 99 90 29 54 65 hvcurveto
            endchar
          </CharString>
          <CharString index="16">
            rmoveto
            -1 89 0 105 141 vvcurveto
            -116 hlineto
            -85 3 -100 2 -70 vhcurveto
            -179 -3 -63 93 167 vvcurveto
            142 44 100 282 -11 vhcurveto
            -7 121 rlineto
            -343 -10 -105 -162 -200 vvcurveto
            -248 154 -141 329 72 vhcurveto
            return
          </CharString>
          <CharString index="17">
            rmoveto
            -114 vlineto
            331 -13 119 114 109 164 -321 46 103 vvcurveto
            50 56 31 224 -16 vhcurveto
            -8 114 rlineto
            -285 15 -119 -108 -103 -160 322 -39 -113 vvcurveto
            -57 -84 -41 -235 18 vhcurveto
            return
          </CharString>
          <CharString index="18">
            rmoveto
            492 159 98 -444 -98 158 -492 -158 -98 441 vlineto
            9 98 rlineto
            endchar
          </CharString>
          <CharString index="19">
            rmoveto
            7 -63 rlineto
            hintmask 00101011
            114 7 rlineto
            -7 126 -2 174 248 vvcurveto
            -123 hlineto
            hintmask 10000111
            -90 callgsubr
            hintmask 10010011
            -123 -7 rlineto
            -373 vlineto
            -135 61 -55 97 vhcurveto
            hintmask 01000111
            76 56 35 39 44 hvcurveto
            endchar
          </CharString>
          <CharString index="20">
            rmoveto
            230 -460 rlineto
            109 688 -117 hlineto
            5 -455 rlineto
            -5 hlineto
            -221 455 rlineto
            -119 -688 117 hlineto
            -5 460 rlineto
            return
          </CharString>
          <CharString index="21">
            rmoveto
            10 108 rlineto
            -263 -13 -75 79 181 vvcurveto
            150 48 81 283 -5 vhcurveto
            -7 121 rlineto
            -341 -7 -114 -165 -192 vvcurveto
            -208 103 -159 356 29 vhcurveto
            endchar
          </CharString>
          <CharString index="22">
            -289 20 -103 -91 -95 -139 296 -20 -79 vvcurveto
            -43 -68 -26 -221 15 vhcurveto
            -4 -106 rlineto
            318 -14 103 85 96 139 -297 31 75 vvcurveto
            40 63 24 206 -18 vhcurveto
            return
          </CharString>
          <CharString index="23">
            rmoveto
            169 107 134 247 hvcurveto
            hintmask 10011100
            110 -22 85 -42 58 vhcurveto
            42 79 rlineto
            hintmask 01101100
            -78 40 -30 -58 rlineto
            18 -32 -39 10 -44 hhcurveto
            -169 -107 -134 -248 -111 22 -86 43 -58 hvcurveto
            -42 -76 rlineto
            hintmask 10101100
            78 -41 30 58 rlineto
            -18 33 38 -9 43 hhcurveto
            -117 369 rmoveto
            170 42 80 86 33 28 -13 -26 22 vhcurveto
            -194 -364 rlineto
            -11 41 -6 50 62 vvcurveto
            136 -266 rmoveto
            -34 -28 13 26 -21 hvcurveto
            194 364 rlineto
            11 -41 6 -50 -62 vvcurveto
            -170 -42 -80 -86 vhcurveto
            endchar
          </CharString>
          <CharString index="24">
            -51 callgsubr
            304 87 202.35 -60 callgsubr
            hintmask 10110110
            571 357 rmoveto
            hintmask 01101110
            270 -127 108 -353 -46 vhcurveto
            -298 -70 -87 70 -304 vlineto
            hintmask 10110110
            331 -47 149 136 268 vvcurveto
            -356 -257 rmoveto
            204 117 vlineto
            5 87 rlineto
            -122 200 hlineto
            171 19 57 -86 -185 vvcurveto
            -184 -59 -80 -169 25 vhcurveto
            endchar
          </CharString>
          <CharString index="25">
            rmoveto
            -91 -58 -53 -70 -66 60 -52 89 90 59 52 70 64 -61 55 -88 hvcurveto
            return
          </CharString>
          <CharString index="26">
            61 27 35 35 49 vvcurveto
            68 -71 43 -93 -115 -61 -64 -58 return
          </CharString>
          <CharString index="27">
            128 228 hlineto
            hintmask 11010000
            218 460 rlineto
            -131 hlineto
            -147 -340 rlineto
            hintmask 10110000
            -153 343 -134 -5 219 -458 rlineto
            endchar
          </CharString>
          <CharString index="28">
            rmoveto
            41 98 rlineto
            -179 53 -83 41 55 vvcurveto
            hintmask 10010000
            59 95 46 70 vvcurveto
            43 -34 44 -91 24 vhcurveto
            hintmask 10001000
            91 29 34 45 41 vvcurveto
            hintmask 11000000
            63 -101 54 51 vvcurveto
            44 83 39 187 51 vhcurveto
            -39 100 rlineto
            -262 -83 -88 -81 -80 vvcurveto
            hintmask 10001000
            1 -84 110 -46 -46 vvcurveto
            -30 -38 -19 -127 -13 vhcurveto
            -4 -87 rlineto
            hintmask 10010000
            110 -9 51 -29 -39 vvcurveto
            hintmask 10100000
            -50 -101 -48 -88 vvcurveto
            -84 85 -51 259 -83 vhcurveto
            endchar
          </CharString>
          <CharString index="29">
            -105 -14 -79 -46 -50 -57 rrcurveto
            -2 26 -7 64 5 vvcurveto
            -229 hlineto
            -10 -87 131 -8 3 -99 1 -115 2 -151 rlinecurve
            -135 hlineto
            return
          </CharString>
          <CharString index="30">
            rmoveto
            55 -16 63 93 26 87 -5 103 rlinecurve
            -132 -2 17 -86 3 -84 -27 -95 rlinecurve
            return
          </CharString>
          <CharString index="31">
            -26 callsubr
            5 -67 callsubr
            -11 callgsubr
            return
          </CharString>
          <CharString index="32">
            -14 104 -72 -21 28 -21 545 -13 callgsubr
            return
          </CharString>
          <CharString index="33">
            460 hlineto
            9 109 -328 -4 317 345 rlineto
            102 -448 vlineto
            -10 -108 318 3 -318 -344 rlineto
            endchar
          </CharString>
          <CharString index="34">
            62 165 55 166 39 125 rrcurveto
            -118 hlineto
            -14 -37 -75 -264 -35 -106 rrcurveto
            -12 hlineto
            return
          </CharString>
          <CharString index="35">
            -6 102.07 361.96999 99.96 -99.96 102.48 return
          </CharString>
          <CharString index="36">
            118 70 60 66 51 -50 33 -55 28 hvcurveto
            return
          </CharString>
          <CharString index="37">
            -110 9 -52 29 39 vvcurveto
            hintmask 10001000
            49 101 49 88 vvcurveto
            84 -85 51 -258 83 vhcurveto
            -41 -98 rlineto
            179 -53 82 -41 -55 vvcurveto
            hintmask 10010000
            -59 -95 -46 -70 vvcurveto
            -43 34 -44 93 -24 vhcurveto
            hintmask 10100000
            -92 -28 -35 -46 -42 vvcurveto
            hintmask 10000100
            -63 102 -53 -51 vvcurveto
            -44 -84 -39 -186 -51 vhcurveto
            endchar
          </CharString>
          <CharString index="38">
            rmoveto
            414 hlineto
            11 92 23 callgsubr
            -2 119 -1 92 -3 84 62 31 77 19 96 7 rrcurveto
            hintmask 10111000
            -5 130 rlineto
            hintmask 11011000
            -40 callsubr
          </CharString>
          <CharString index="39">
            -75 callgsubr
            hintmask 10101110
            -7 63 rlineto
            hintmask 10011110
            -62 callgsubr
            hintmask 11001110
            -58 callsubr
            endchar
          </CharString>
          <CharString index="40">
            156 rlineto
            return
          </CharString>
          <CharString index="41">
            -60 callsubr
            -410 -239 -64 callgsubr
            return
          </CharString>
          <CharString index="42">
            81 216.5 154 return
          </CharString>
          <CharString index="43">
            77 139.59 64.53 hstem
            132 92 178 91 vstem
            311 return
          </CharString>
          <CharString index="44">
            -81 callsubr
            -39 callsubr
            return
          </CharString>
          <CharString index="45">
            -18 callsubr
            -65 callgsubr
            484 return
          </CharString>
          <CharString index="46">
            rmoveto
            hintmask 01011100
            270 -127 108 -353 -46 vhcurveto
            -689 vlineto
            hintmask 10101100
            331 -47 149 136 268 vvcurveto
            -128 -18 rmoveto
            -184 -59 -80 -169 25 vhcurveto
            491 vlineto
            171 19 57 -86 -185 vvcurveto
            endchar
          </CharString>
          <CharString index="47">
            484 617 -106 callsubr
            return
          </CharString>
          <CharString index="48">
            hstem
            71 121 241 119.11 vstem
            return
          </CharString>
          <CharString index="49">
            178 -2 143 -3 103 vhcurveto
            23 34 36 15 44 hhcurveto
            return
          </CharString>
          <CharString index="50">
            80 301 79 hstem
            118 98 192 97 vstem
            304 return
          </CharString>
          <CharString index="51">
            -249 97 173 -21 hstem
            180 116 vstem
            431 hmoveto
            -32 48 rlineto
            -157 -70 -62 -58 -56 vvcurveto
            -58 -8 callsubr
            11 97 17 callsubr
            25 vvcurveto
            24 31 32 104 46 vhcurveto
            endchar
          </CharString>
          <CharString index="52">
            -8 109.94 481.92 110.14 hstem
            93 132 190 131 vstem
            return
          </CharString>
          <CharString index="53">
            rmoveto
            88 -72 184 238 6 121 -186 236 -88 -70 183 -229 rlineto
            85 -224 rmoveto
            87 -72 185 238 6 121 -186 236 -88 -70 182 -230 rlineto
            endchar
          </CharString>
          <CharString index="54">
            455 hlineto
            11 92 rlineto
            -172 684 -278 hlineto
            return
          </CharString>
          <CharString index="55">
            rmoveto
            105 -385 -105 vlineto
            return
          </CharString>
          <CharString index="56">
            -7.68 104.68 -80 -21 448 117 return
          </CharString>
          <CharString index="57">
            130.63 return
          </CharString>
          <CharString index="58">
            147 472 rmoveto
            -95 callgsubr
            return
          </CharString>
          <CharString index="59">
            0 92 592 92 -88 -20 hstemhm
            255 123 return
          </CharString>
          <CharString index="60">
            64 51 30 37 37 hvcurveto
            -102 34 rmoveto
            -77 -54 59 132 121 59 63 85 24 26 -5 -9 28 hvcurveto
            1 -134 1 -107 2 -86 rrcurveto
            -21 -27 -31 -13 -37 hhcurveto
            endchar
          </CharString>
          <CharString index="61">
            -65 callsubr
            hstem
            284 94 vstem
            152 return
          </CharString>
          <CharString index="62">
            71 318 -44 callsubr
            hintmask 11100100
            303 return
          </CharString>
          <CharString index="63">
            71 -53 callgsubr
            hintmask 00000000
            return
          </CharString>
          <CharString index="64">
            -7.26 111.26 473 121 return
          </CharString>
          <CharString index="65">
            -65 -26 -37 -38 -51 vvcurveto
            -66 64 -47 105 vhcurveto
            return
          </CharString>
          <CharString index="66">
            hstem
            61 125 255 124 vstem
            return
          </CharString>
          <CharString index="67">
            -78 callsubr
            endchar
          </CharString>
          <CharString index="68">
            -49 43 -34 51 -27 vhcurveto
            return
          </CharString>
          <CharString index="69">
            0 107 338.5 106.5 return
          </CharString>
          <CharString index="70">
            41 -50 79 -27 150 2 rrcurveto
            -148 467 rmoveto
            39 14 -47 -93 1 hvcurveto
            -31 -49 -1 -1 -37 hvcurveto
            104 3 17 38 43 hhcurveto
            return
          </CharString>
          <CharString index="71">
            13 -21 29 -21 29 -21 229 88.5 220.5 -20 29 -20 243 12 callsubr
            104 123 return
          </CharString>
          <CharString index="72">
            21 -21 462 105 -12 -20 32 -20 return
          </CharString>
          <CharString index="73">
            165 -8 rlineto
            -588 -171 vlineto
            return
          </CharString>
          <CharString index="74">
            -53 callsubr
            hintmask 10110000
            -10 -88 rlineto
            hintmask 11010000
            -34 callsubr
            return
          </CharString>
          <CharString index="75">
            83 281 85 hstem
            374 98 vstem
            147 return
          </CharString>
          <CharString index="76">
            0 98 492 98 -19 callgsubr
            return
          </CharString>
          <CharString index="77">
            21 -21 688 -20 return
          </CharString>
          <CharString index="78">
            -70 46 -40 -57 rlineto
            20 -34 -40 11 -45 hhcurveto
            -147 -122 -126 -179 -82 20 -65 35 -48 hvcurveto
            -47 -65 rlineto
            return
          </CharString>
          <CharString index="79">
            138 16 -211 346 195 334 rlineto
            -135 hlineto
            -160 -288 rlineto
            -62 288 -127 hlineto
            return
          </CharString>
          <CharString index="80">
            -176 -21 749 -20 25 -20 return
          </CharString>
          <CharString index="81">
            0 callgsubr
            hlineto
            return
          </CharString>
          <CharString index="82">
            rmoveto
            261 -237 82 86 -244 212 250 212 -81 86 -260 -239 rlineto
            endchar
          </CharString>
          <CharString index="83">
            rmoveto
            0 9 7 6 9 9 7 -6 -12 callsubr
            0 -9 -7 -7 -9 -9 -7 6 -12 callsubr
            return
          </CharString>
          <CharString index="84">
            -174 -21 244 96 317 104 return
          </CharString>
          <CharString index="85">
            43 53 -96 71 hhcurveto
            return
          </CharString>
          <CharString index="86">
            -14 101 -69 -21 27 -21 459 105 21 callgsubr
            61 122 222 123 return
          </CharString>
          <CharString index="87">
            106 194 6 callgsubr
            return
          </CharString>
          <CharString index="88">
            hstem
            275 124 vstem
            return
          </CharString>
          <CharString index="89">
            88 281 82 return
          </CharString>
          <CharString index="90">
            hstemhm
            158 119 -117 123 -22 117 -109 109 hintmask 10100000
            504 return
          </CharString>
          <CharString index="91">
            -30 callsubr
            hstem
            -24 callgsubr
            vstem
            return
          </CharString>
          <CharString index="92">
            0 106 582 -20 hstem
            122 128 vstem
            return
          </CharString>
          <CharString index="93">
            hstemhm
            93 123 202 123 return
          </CharString>
          <CharString index="94">
            87 283 81 return
          </CharString>
          <CharString index="95">
            0 hflex1
            return
          </CharString>
          <CharString index="96">
            -17 103 -72 -21 609 104 -10 -20 hstemhm
            52 128 264 129 hintmask 10101100
            return
          </CharString>
          <CharString index="97">
            rmoveto
            -974 368 vlineto
            11 98 rlineto
            -261 778 255 98 hlineto
            endchar
          </CharString>
          <CharString index="98">
            127 hlineto
            6 163 rlineto
            -127 hlineto
            return
          </CharString>
          <CharString index="99">
            62 -47 165 -8 vhcurveto
            return
          </CharString>
          <CharString index="100">
            hstemhm
            86 123 return
          </CharString>
          <CharString index="101">
            -1 86 -110 45 46 vvcurveto
            29 39 21 126 12 vhcurveto
            5 87 rlineto
            return
          </CharString>
          <CharString index="102">
            122 hmoveto
            -39 callgsubr
            return
          </CharString>
          <CharString index="103">
            13 -21 29 -21 29 -21 288 104 288 -20 hstemhm
            93 127 return
          </CharString>
          <CharString index="104">
            84 hstem
            145 348 vstem
            194 return
          </CharString>
          <CharString index="105">
            268 635 rmoveto
            128 hlineto
            9 -67 callsubr
            -129 hlineto
            return
          </CharString>
          <CharString index="106">
            78 1 callsubr
            return
          </CharString>
          <CharString index="107">
            128.5 -125.5 124 hintmask 00000000
            return
          </CharString>
          <CharString index="108">
            hstem
            -47 callgsubr
            vstem
            452 return
          </CharString>
          <CharString index="109">
            -19 hlineto
            -6 2 -3 5 4 2 2 4 1 vhcurveto
            5 hlineto
            return
          </CharString>
          <CharString index="110">
            hstem
            87 1701 vstem
            return
          </CharString>
          <CharString index="111">
            -172 -21 32 -21 return
          </CharString>
          <CharString index="112">
            hstem
            87 1076 vstem
            return
          </CharString>
          <CharString index="113">
            -20 23 -20 return
          </CharString>
          <CharString index="114">
            0 106 77 93 24 6 callgsubr
            hstemhm
            294 105 return
          </CharString>
          <CharString index="115">
            rmoveto
            11 96 17 callsubr
            25 vvcurveto
            25 31 32 return
          </CharString>
          <CharString index="116">
            -244 77 139.59 64.53 return
          </CharString>
          <CharString index="117">
            110 92 -96 -176 -176 -88 -96 -116 return
          </CharString>
          <CharString index="118">
            hstemhm
            21 callsubr
            return
          </CharString>
          <CharString index="119">
            -20 31 -20 hstemhm
            return
          </CharString>
          <CharString index="120">
            10 106 rlineto
            return
          </CharString>
          <CharString index="121">
            -20 22 callsubr
            253 115 hintmask 01111100
            return
          </CharString>
          <CharString index="122">
            70.5 140.5 72 return
          </CharString>
          <CharString index="123">
            rmoveto
            39 -100 261 83 89 81 -1 79 rlinecurve
            return
          </CharString>
          <CharString index="124">
            rlineto
            -89 8 -33 17 return
          </CharString>
          <CharString index="125">
            -17 104 514 105 return
          </CharString>
          <CharString index="126">
            -136 -206 vhcurveto
            69 4 rmoveto
            174 return
          </CharString>
          <CharString index="127">
            hstemhm
            37 113 105 102 117 111 return
          </CharString>
          <CharString index="128">
            171.5 84 return
          </CharString>
          <CharString index="129">
            hstemhm
            61 135 return
          </CharString>
        <CharString name=".notdef">
          -807 -200 50 900 50 hstem
          5 54 432 54 vstem
          5 800 rmoveto
          -1000 540 1000 vlineto
          -270 -440 rmoveto
          -193 390 rlineto
          386 hlineto
          -223 -450 rmoveto
          -186 -376 rlineto
          752 vlineto
          246 -376 rmoveto
          186 376 rlineto
          -752 vlineto
          -409 -74 rmoveto
          193 390 193 -390 rlineto
          endchar
        </CharString>
        <CharString name="A">
          -76 callgsubr
          -12 callgsubr
          hintmask 00000000
          hintmask 10011100
          460 -4 -102 callsubr
        </CharString>
        <CharString name="AE">
          7 callsubr
          hintmask 00000000
          hintmask 11111000
          294 183 -70 callgsubr
        </CharString>
        <CharString name="AEacute">
          7 callsubr
          hintmask 10111000
          232 810 -107 callgsubr
          hintmask 11111000
          62 -627 -70 callgsubr
        </CharString>
        <CharString name="Aacute">
          -76 callgsubr
          -12 callgsubr
          hintmask 00111100
          179 810 -107 callgsubr
          hintmask 10011100
          281 -814 -102 callsubr
        </CharString>
        <CharString name="Abreve">
          -76 callgsubr
          73 98 -12 callgsubr
          hintmask 00111110
          312 762 -104 callgsubr
          hintmask 10011110
          148 -766 rmoveto
          hintmask 00111110
          128 8 -59 229 -60 227 -68 229 rlinecurve
          -176 hlineto
          hintmask 01011110
          -95 callsubr
          hintmask 10011110
          16 -66 16 -65 15 -65 rrcurveto
          hintmask 00111110
          -94 callgsubr
        </CharString>
        <CharString name="Acircumflex">
          -76 callgsubr
          -12 callgsubr
          hintmask 00111100
          301 872 -92 callgsubr
          hintmask 10011100
          297 -763 -102 callsubr
        </CharString>
        <CharString name="Adieresis">
          -76 callgsubr
          82 -25 callgsubr
          126.5 -72 callgsubr
          hintmask 00111111
          126 771 -104 callsubr
          hintmask 10011111
          86 -931 rmoveto
          hintmask 00111111
          128 8 -59 229 -60 227 -68 229 rlinecurve
          -176 hlineto
          hintmask 01011111
          -95 callsubr
          hintmask 10011111
          16 -66 16 -65 15 -65 rrcurveto
          hintmask 00111111
          -94 callgsubr
        </CharString>
        <CharString name="Agrave">
          -76 callgsubr
          -12 callgsubr
          hintmask 00111100
          401 753 -100 callgsubr
          hintmask 10011100
          59 -757 -102 callsubr
        </CharString>
        <CharString name="Amacron">
          -76 callgsubr
          109 105 -12 callgsubr
          hintmask 00111110
          503 798 -52 callsubr
          hintmask 10011110
          342 -802 rmoveto
          hintmask 00111110
          128 8 -59 229 -60 227 -68 229 rlinecurve
          -176 hlineto
          hintmask 01011110
          -95 callsubr
          hintmask 10011110
          16 -66 16 -65 15 -65 rrcurveto
          hintmask 00111110
          -94 callgsubr
        </CharString>
        <CharString name="Aogonek">
          -244 96 169 -21 24 -21 22 -21 188 92 301 104 -12 callgsubr
          -251 116 hintmask 00000000
          hintmask 10011101
          564 -244 8 callsubr
          104 45 vhcurveto
          -59 229 -60 227 -68 229 rrcurveto
          -176 hlineto
          hintmask 01001110
          -95 callsubr
          hintmask 00101101
          15 -63 16 -63 14 -63 rrcurveto
          -85 -49 -36 -44 -42 vvcurveto
          hintmask 10011101
          -58 62 -46 165 -8 vhcurveto
          -257 829 rmoveto
          9 hlineto
          hintmask 00011101
          26 -99 25 -101 24 -101 rrcurveto
          -160 hlineto
          hintmask 10011101
          25 101 25 101 26 99 rrcurveto
          endchar
        </CharString>
        <CharString name="Aring">
          -76 callgsubr
          59 241 -12 callgsubr
          hintmask 00111110
          310 989 -82 callsubr
          hintmask 10011110
          150 -993 rmoveto
          hintmask 00111110
          128 8 -59 229 -60 227 -68 229 rlinecurve
          -176 hlineto
          hintmask 01011110
          -95 callsubr
          hintmask 10011110
          16 -66 16 -65 15 -65 rrcurveto
          hintmask 00111110
          -94 callgsubr
        </CharString>
        <CharString name="Aringacute">
          -76 callgsubr
          -12 callgsubr
          hintmask 00111100
          179 1079 -107 callgsubr
          131 -90 -82 callsubr
          hintmask 10011100
          150 -993 -102 callsubr
        </CharString>
        <CharString name="Atilde">
          -76 callgsubr
          77 99 -3 100 -12 callgsubr
          hintmask 00111101
          396 766 -78 callgsubr
          hintmask 00111011
          -85 callgsubr
          hintmask 00111101
          -22 callsubr
          hintmask 10011101
          64 -770 rmoveto
          hintmask 00111101
          128 8 -59 229 -60 227 -68 229 rlinecurve
          -176 hlineto
          hintmask 01011101
          -95 callsubr
          hintmask 10011101
          16 -66 16 -65 15 -65 rrcurveto
          hintmask 00111101
          -94 callgsubr
        </CharString>
        <CharString name="B">
          -9.47 99.2 -68.73 -21 300 88 208.27 101.39 -9.66 -20 hstemhm
          101 125 195 122 -102 124 hintmask 10110101
          565 203 rmoveto
          86 -48 51 -86 24 vhcurveto
          hintmask 01101110
          67 31 45 54 78 vvcurveto
          156 -172 35 -270 -30 vhcurveto
          -688 vlineto
          hintmask 10110101
          266 -34 199 55 -1 182 rrcurveto
          hintmask 10110110
          -339 185 rmoveto
          205 vlineto
          123 14 72 -28 -83 vvcurveto
          -80 -48 -33 -147 5 vhcurveto
          hintmask 10110101
          -293 vmoveto
          205 vlineto
          141 7 74 -18 -91 vvcurveto
          -95 -74 -27 -141 19 vhcurveto
          endchar
        </CharString>
        <CharString name="C">
          -43 callsubr
          hstem
          75 131 vstem
          534 -4 -86 callsubr
        </CharString>
        <CharString name="Cacute">
          -43 callsubr
          hstem
          75 131 vstem
          220 810 -107 callgsubr
          314 -814 -86 callsubr
        </CharString>
        <CharString name="Ccaron">
          -43 callsubr
          hstem
          75 131 vstem
          354 751 -99 callgsubr
          384 -911 -86 callsubr
        </CharString>
        <CharString name="Ccedilla">
          -7 111 -108 108 -81 -21 575 121 hstemhm
          75 131 140 110 hintmask 10011100
          456 -127 rmoveto
          hintmask 00111100
          40 -32 45 -86 44 vhcurveto
          hintmask 01011100
          54 -10 65 -2 77 6 rrcurveto
          hintmask 10011100
          10 108 rlineto
          -263 -13 -75 79 181 vvcurveto
          150 48 81 283 -5 vhcurveto
          -7 121 rlineto
          -341 -7 -114 -165 -192 vvcurveto
          -143 49 -119 145 -52 vhcurveto
          -21 -48 -67 callgsubr
          endchar
        </CharString>
        <CharString name="Cdotaccent">
          -43 callsubr
          73 156 hstem
          75 131 85 -45 callgsubr
          vstem
          289 771 -76 callsubr
          241 -931 -86 callsubr
        </CharString>
        <CharString name="D">
          -51 callgsubr
          593.35 -60 callgsubr
          hintmask 10101100
          571 357 -61 callsubr
        </CharString>
        <CharString name="Dcaron">
          -51 callgsubr
          593.35 -60 callgsubr
          hintmask 10101100
          302 757 -99 callgsubr
          473 -556 -61 callsubr
        </CharString>
        <CharString name="Dcroat">
          -83 callsubr
        </CharString>
        <CharString name="E">
          0 -59 callgsubr
          vstem
          540 hmoveto
          13 callsubr
          -88 callgsubr
        </CharString>
        <CharString name="Eacute">
          0 -59 callgsubr
          vstem
          197 810 -107 callgsubr
          343 -810 rmoveto
          13 callsubr
          -88 callgsubr
        </CharString>
        <CharString name="Ebreve">
          -27 callgsubr
          74 98 hstem
          114 127 vstem
          329 762 -104 callgsubr
          211 -762 rmoveto
          13 callsubr
          -88 callgsubr
        </CharString>
        <CharString name="Ecaron">
          0 -59 callgsubr
          vstem
          331 751 -99 callgsubr
          413 -907 rmoveto
          13 callsubr
          -88 callgsubr
        </CharString>
        <CharString name="Ecircumflex">
          0 -59 callgsubr
          vstem
          318 872 -92 callgsubr
          360 -759 rmoveto
          13 callsubr
          -88 callgsubr
        </CharString>
        <CharString name="Edieresis">
          -27 callgsubr
          83 -25 callgsubr
          114 127 -97.5 -72 callgsubr
          hintmask 00000000
          hintmask 11110110
          143 771 -104 callsubr
          149 -927 rmoveto
          13 callsubr
          hintmask 11111010
          -88 callgsubr
        </CharString>
        <CharString name="Edotaccent">
          -27 callgsubr
          83 -25 callgsubr
          114 127 27 -45 callgsubr
          hintmask 00000000
          hintmask 11111100
          266 771 -76 callsubr
          270 -927 rmoveto
          13 callsubr
          hintmask 11111000
          -88 callgsubr
        </CharString>
        <CharString name="Egrave">
          0 -59 callgsubr
          vstem
          418 753 -100 callgsubr
          122 -753 rmoveto
          13 callsubr
          -88 callgsubr
        </CharString>
        <CharString name="Emacron">
          -27 callgsubr
          110 105 hstem
          114 127 vstem
          520 798 -52 callsubr
          405 -798 rmoveto
          13 callsubr
          -88 callgsubr
        </CharString>
        <CharString name="Eogonek">
          -249 97 152 -59 callgsubr
          48 116 vstem
          516 -249 rmoveto
          11 97 17 callsubr
          25 vvcurveto
          24 31 32 104 46 vhcurveto
          13 callsubr
          -309 194 259 93 -259 190 303 105 -430 -688 298 hlineto
          -87 -49 -36 -44 -43 vvcurveto
          -58 -8 callsubr
          endchar
        </CharString>
        <CharString name="Eth">
          -83 callsubr
        </CharString>
        <CharString name="Euro">
          204 87 -76 79 86 79 hstemhm
          135 113 hintmask 01110000
          531 -24 rmoveto
          16 101 -174 25 -75 41 -30 72 rlinecurve
          214 hlineto
          4 79 rlineto
          -236 hlineto
          -1 17 -1 18 19 vvcurveto
          11 0 11 1 10 vhcurveto
          240 hlineto
          4 79 rlineto
          -233 hlineto
          24 78 69 33 185 27 -19 117 rcurveline
          -240 -44 -96 -85 -33 -117 rrcurveto
          -81 -88 67 hlineto
          hintmask 10110000
          -1 -12 0 -12 -12 vvcurveto
          -18 1 -18 1 -17 vhcurveto
          -67 -87 82 hlineto
          hintmask 01110000
          36 -127 104 -78 239 -23 rrcurveto
          endchar
        </CharString>
        <CharString name="F">
          21 -21 284 98 200 106 hstem
          120 128 vstem
          248 284 rmoveto
          262 98 -262 200 307 106 -435 -688 128 hlineto
          endchar
        </CharString>
        <CharString name="G">
          -43 callgsubr
          hstem
          62 129 237 116 vstem
          545 9 -91 callsubr
          endchar
        </CharString>
        <CharString name="Gbreve">
          -43 callgsubr
          64 98 hstem
          62 129 237 116 vstem
          333 762 -104 callgsubr
          212 -753 -91 callsubr
          endchar
        </CharString>
        <CharString name="Gdotaccent">
          -43 callgsubr
          73 -25 callgsubr
          62 129 82 -45 callgsubr
          27.5 116 hintmask 00000000
          hintmask 11111100
          271 771 -76 callsubr
          hintmask 11110100
          270 -918 -91 callsubr
          endchar
        </CharString>
        <CharString name="H">
          21 -21 299 97 292 -20 hstem
          83 130 199 130 vstem
          412 299 rmoveto
          -299 130 688 -130 -292 -199 292 -130 -688 130 299 vlineto
          endchar
        </CharString>
        <CharString name="Hbar">
          21 -21 280 97 107 86 -82 78 -78 200 hstemhm
          83 130 199 130 hintmask 11010110
          412 280 rmoveto
          -280 130 vlineto
          hintmask 11100110
          484 69 86 -69 vlineto
          hintmask 11001110
          118 -130 vlineto
          hintmask 11010110
          -122 -199 vlineto
          hintmask 11001110
          122 -130 vlineto
          hintmask 11100110
          -118 -69 -86 69 -484 130 280 vlineto
          hintmask 11010110
          199 208 rmoveto
          -111 -199 111 vlineto
          endchar
        </CharString>
        <CharString name="I">
          -31 callsubr
          376 98 -89 callsubr
        </CharString>
        <CharString name="Iacute">
          -31 callsubr
          185 810 -107 callgsubr
          191 -712 -89 callsubr
        </CharString>
        <CharString name="Ibreve">
          0 98 492 98 74 98 -19 callgsubr
          317 762 -104 callgsubr
          59 -664 -89 callsubr
        </CharString>
        <CharString name="Icircumflex">
          -31 callsubr
          306 872 -92 callgsubr
          208 -661 -89 callsubr
        </CharString>
        <CharString name="Idieresis">
          0 98 492 98 83 -25 callgsubr
          132.5 125 -8.5 127 3 125 hintmask 00000000
          hintmask 11110100
          132 771 -104 callsubr
          hintmask 11101000
          -4 -829 -89 callsubr
        </CharString>
        <CharString name="Idotaccent">
          0 98 492 98 83 -25 callgsubr
          249 127 -120 -45 callgsubr
          hintmask 00000000
          hintmask 11101000
          254 771 -76 callsubr
          hintmask 11110000
          118 -829 -89 callsubr
        </CharString>
        <CharString name="Igrave">
          -31 callsubr
          406 753 -100 callgsubr
          -30 -655 -89 callsubr
        </CharString>
        <CharString name="Imacron">
          0 98 492 98 110 105 -19 callgsubr
          509 798 -52 callsubr
          252 -700 -89 callsubr
        </CharString>
        <CharString name="Iogonek">
          -245 97 148 98 492 98 hstemhm
          178 116 -45 127 hintmask 00000000
          hintmask 11110000
          405 -245 rmoveto
          10 97 rlineto
          -88 7 -33 18 26 vvcurveto
          24 18 29 55 44 vhcurveto
          165 hlineto
          9 98 rlineto
          hintmask 01101000
          -165 492 159 98 -444 -98 158 -492 hlineto
          hintmask 01110000
          -158 -98 173 hlineto
          -60 -47 -26 -42 -39 vvcurveto
          hintmask 11110000
          -62 -8 callsubr
          endchar
        </CharString>
        <CharString name="J">
          -11 108.64 490.36 100 hstem
          363 128 vstem
          491 688 rmoveto
          -355 -100 227 -356 hlineto
          -119 -23 -24 -245 11 vhcurveto
          -111 vlineto
          298 -7 98 75 177 vvcurveto
          endchar
        </CharString>
        <CharString name="K">
          -4 callsubr
          hintmask 00111100
          277 296 rmoveto
          hintmask 10011100
          178 -304 rlineto
          hintmask 00111100
          -28 callsubr
          hintmask 01011100
          -688 127 296 vlineto
          endchar
        </CharString>
        <CharString name="L">
          -15 callsubr
          -5 callsubr
          endchar
        </CharString>
        <CharString name="Lacute">
          -15 callsubr
          205 810 -107 callgsubr
          -83 -810 rmoveto
          -39 callgsubr
          endchar
        </CharString>
        <CharString name="Lcaron">
          0 106 582 -20 115 -20 hstem
          122 128 168 119 vstem
          398 516 -77 callsubr
          -276 -516 rmoveto
          -39 callgsubr
          endchar
        </CharString>
        <CharString name="Ldot">
          0 106 183 142 257 -20 hstem
          122 128 179 123.5 vstem
          -5 callsubr
          303 -399 rmoveto
          124 hlineto
          7 142 rlineto
          -123 hlineto
          endchar
        </CharString>
        <CharString name="Lslash">
          -15 callsubr
          122 hmoveto
          428 hlineto
          11 106 rlineto
          -311 268 hlineto
          146 74 -19 83 -127 -65 rlineto
          222 -128 -287 vlineto
          -85 -43 19 -83 66 34 rlineto
          endchar
        </CharString>
        <CharString name="M">
          21 -21 136 142 410 -20 hstem
          73 110 253.5 -37 callgsubr
          vstem
          551 688 rmoveto
          -122 hlineto
          -113 -410 rlineto
          -5 hlineto
          -8 30 -106 380 0 vvcurveto
          -124 -688 113 hlineto
          -6 461 rlineto
          4 hlineto
          91 -325 rlineto
          71 hlineto
          89 325 rlineto
          5 hlineto
          -7 -461 rlineto
          118 hlineto
          endchar
        </CharString>
        <CharString name="N">
          -16 callsubr
          202 460 -87 callsubr
          endchar
        </CharString>
        <CharString name="NUL">
          -1357 endchar
        </CharString>
        <CharString name="Nacute">
          -16 callsubr
          182 810 -107 callgsubr
          20 -350 -87 callsubr
          endchar
        </CharString>
        <CharString name="Ncaron">
          -16 callsubr
          317 751 -99 callgsubr
          89 -447 -87 callsubr
          endchar
        </CharString>
        <CharString name="Ntilde">
          -30 callsubr
          98 99 -3 100 hstemhm
          -24 callgsubr
          hintmask 11101100
          399 766 -78 callgsubr
          hintmask 11011100
          -85 callgsubr
          hintmask 11101100
          -22 callsubr
          -197 -306 -87 callsubr
          endchar
        </CharString>
        <CharString name="O">
          -57 callgsubr
          297 -17 -105 callgsubr
        </CharString>
        <CharString name="OE">
          -27 callgsubr
          hstem
          41 126 131 106 vstem
          573 hmoveto
          6 106 rlineto
          -175 194 138 93 -138 190 170 105 -247 hlineto
          -189 -97 -128 -228 -236 92 -96 193 hvcurveto
          -159 350 rmoveto
          171 40 60 91 1 vhcurveto
          -476 vlineto
          -94 -1 -37 71 174 vvcurveto
          endchar
        </CharString>
        <CharString name="Oacute">
          -57 callgsubr
          186 818 -107 callgsubr
          111 -835 -105 callgsubr
        </CharString>
        <CharString name="Obreve">
          18 callsubr
          64 98 hstem
          52 131 259 131 vstem
          318 770 -104 callgsubr
          -21 -787 -105 callgsubr
        </CharString>
        <CharString name="Ocircumflex">
          -57 callgsubr
          307 880 -92 callgsubr
          128 -784 -105 callgsubr
        </CharString>
        <CharString name="Odieresis">
          18 callsubr
          73 -25 callgsubr
          52 131 -50.5 -72 callgsubr
          -62 131 hintmask 00000000
          hintmask 11101100
          132 779 -29 callgsubr
          -83 -952 -105 callgsubr
        </CharString>
        <CharString name="Ograve">
          -57 callgsubr
          407 761 -100 callgsubr
          -110 -778 -105 callgsubr
        </CharString>
        <CharString name="Ohungarumlaut">
          -57 callgsubr
          138 806 -94 callsubr
          -75 -821 -105 callgsubr
        </CharString>
        <CharString name="Omacron">
          18 callsubr
          100 105 hstem
          52 131 259 131 vstem
          509 806 -52 callsubr
          173 -823 -105 callgsubr
        </CharString>
        <CharString name="Oslash">
          -11 callsubr
          297 -17 -84 callsubr
        </CharString>
        <CharString name="Oslashacute">
          -11 callsubr
          181 818 -107 callgsubr
          116 -835 -84 callsubr
        </CharString>
        <CharString name="Otilde">
          18 callsubr
          68 99 -3 100 hstemhm
          52 131 259 131 hintmask 11101100
          402 774 -78 callgsubr
          hintmask 11011100
          -85 callgsubr
          hintmask 11101100
          -22 callsubr
          -105 -791 -105 callgsubr
        </CharString>
        <CharString name="P">
          21 -21 593.14 105.09 -11.23 -20 hstemhm
          103 127 218 124 hintmask 11011000
          103 hmoveto
          127 206 hlineto
          201 22 141 79 166 vvcurveto
          hintmask 10111000
          175 -153 82 -316 -43 vhcurveto
          hintmask 11011000
          345 -239 rmoveto
          -114 -75 -36 -143 15 vhcurveto
          277 vlineto
          146 17 72 -53 -106 vvcurveto
          endchar
        </CharString>
        <CharString name="Q">
          7 -21 32 -21 604 105 hstemhm
          52 131 259 131 hintmask 01111000
          238 -75 rmoveto
          261 -86 36 103 -149 52 rlineto
          3 vlineto
          117 41 70 126 200 vvcurveto
          220 -1 -87 122 -157 hhcurveto
          -169 -107 -134 -248 hvcurveto
          hintmask 10111000
          -202 74 -118 133 -18 vhcurveto
          49 615 rmoveto
          90 44 -89 -176 -167 -38 -82 -88 -89 -44 89 176 168 37 81 88 hvcurveto
          endchar
        </CharString>
        <CharString name="R">
          -77 callgsubr
          197 125 hintmask 00111011
          332 240 -83 callgsubr
        </CharString>
        <CharString name="R_p">
          4 callsubr
          199 13 callgsubr
          24 -21 683 -20 25.29 -20 hstemhm
          37 92 220 88 hintmask 0100101110000000
          167 253 rmoveto
          hintmask 0110001110000000
          54 -257 rlineto
          hintmask 0100110110000000
          93 7 -69 297 rlineto
          40 49 29 66 78 vvcurveto
          135 -83 86 -194 -28 vhcurveto
          hintmask 1001001110000000
          -686 95 vlineto
          -6 251 rlineto
          223 -444 rmoveto
          hintmask 0100101110000000
          88 11 rlineto
          185 vlineto
          85 -4 76 76 210 vvcurveto
          216 -59 77 -124 -67 vhcurveto
          -3 20 -63 -1 rlineto
          endchar
        </CharString>
        <CharString name="Racute">
          -77 callgsubr
          197 125 hintmask 00111011
          166 817 -107 callgsubr
          166 -577 -83 callgsubr
        </CharString>
        <CharString name="Rcaron">
          -77 callgsubr
          197 125 hintmask 00111011
          300 758 -99 callgsubr
          236 -674 -83 callgsubr
        </CharString>
        <CharString name="S">
          -55 callsubr
          96 106 -90 callsubr
          endchar
        </CharString>
        <CharString name="Sacute">
          -55 callsubr
          196 815 -107 callgsubr
          -100 -709 -90 callsubr
          endchar
        </CharString>
        <CharString name="Scaron">
          -55 callsubr
          331 756 -99 callgsubr
          -31 -806 -90 callsubr
          endchar
        </CharString>
        <CharString name="Scedilla">
          -8 109.94 -79.94 -21 582.86 110.14 hstemhm
          93 132 82 110 -2 131 hintmask 00000000
          hintmask 01111000
          185 -163 rmoveto
          8 -94 rlineto
          149 14 75 49 61 vvcurveto
          42 -35 46 -93 46 vhcurveto
          hintmask 01110100
          186 29 71 88 84 164 -321 46 103 vvcurveto
          50 56 31 224 -16 vhcurveto
          -8 114 rlineto
          -285 15 -119 -108 -103 vvcurveto
          hintmask 10110100
          -160 322 -39 -113 vvcurveto
          -57 -84 -41 -235 18 vhcurveto
          -114 vlineto
          hintmask 10111000
          46 -2 41 1 38 3 -12 -28 rcurveline
          66 -34 32 -28 -22 vvcurveto
          hintmask 01111000
          -21 -35 -14 -87 -10 vhcurveto
          endchar
        </CharString>
        <CharString name="T">
          16 callgsubr
          377 hmoveto
          -35 callgsubr
          endchar
        </CharString>
        <CharString name="Tcaron">
          16 callgsubr
          312 751 -99 callgsubr
          269 -907 rmoveto
          -35 callgsubr
          endchar
        </CharString>
        <CharString name="Thorn">
          0 213.39 268.98 103.63 -103.63 205.63 hstemhm
          104 127 219 125 hintmask 10111000
          104 hmoveto
          127 109 hlineto
          202 20 142 78 163 vvcurveto
          hintmask 11011000
          148 -117 79 -227 -11 vhcurveto
          hintmask 10111000
          102 -127 vlineto
          346 -343 rmoveto
          -108 -77 -34 -142 13 vhcurveto
          264 vlineto
          144 14 75 -48 -101 vvcurveto
          endchar
        </CharString>
        <CharString name="U">
          -61 callgsubr
          307 -17 -101 callgsubr
        </CharString>
        <CharString name="Uacute">
          -61 callgsubr
          181 810 -107 callgsubr
          126 -827 -101 callgsubr
        </CharString>
        <CharString name="Ubreve">
          -17 109 596 -20 94 98 hstem
          80 127 211 127 vstem
          314 762 -104 callgsubr
          -7 -779 -101 callgsubr
        </CharString>
        <CharString name="Ucircumflex">
          -61 callgsubr
          303 872 -92 callgsubr
          142 -776 -101 callgsubr
        </CharString>
        <CharString name="Udieresis">
          -17 109 596 -20 103 -25 callgsubr
          80 127 -78.5 -72 callgsubr
          -82 127 hintmask 00000000
          hintmask 11101100
          128 771 -29 callgsubr
          -69 -944 -101 callgsubr
        </CharString>
        <CharString name="Ugrave">
          -61 callgsubr
          403 753 -100 callgsubr
          -96 -770 -101 callgsubr
        </CharString>
        <CharString name="Uhungarumlaut">
          -61 callgsubr
          134 798 -94 callsubr
          -61 -813 -101 callgsubr
        </CharString>
        <CharString name="Umacron">
          -17 109 596 -20 130 105 hstem
          80 127 211 127 vstem
          505 798 -52 callsubr
          187 -815 -101 callgsubr
        </CharString>
        <CharString name="Uogonek">
          -249 97 135 109 -88 -21 705 -20 hstemhm
          80 127 -16 116 111 127 hintmask 00000000
          hintmask 11010110
          418 -249 rmoveto
          11 97 17 callsubr
          28 vvcurveto
          33 42 21 86 60 vhcurveto
          75 53 35 64 106 vvcurveto
          450 -127 -472 vlineto
          -89 -32 -35 -70 vhcurveto
          hintmask 11011010
          -67 -42 43 99 hvcurveto
          454 -127 -459 vlineto
          -147 74 -88 129 -11 vhcurveto
          hintmask 10110110
          -68 -42 -24 -37 -40 vvcurveto
          hintmask 11010110
          -58 -8 callsubr
          endchar
        </CharString>
        <CharString name="Uring">
          -17 109 596 -20 80 241 hstem
          80 127 211 127 vstem
          312 989 -82 callsubr
          -5 -1006 -101 callgsubr
        </CharString>
        <CharString name="V">
          -1 115 574 -20 25 -20 hstemhm
          39 546 hintmask 10110000
          224 -1 rmoveto
          177 hlineto
          hintmask 11010000
          68 230 60 230 56 229 rrcurveto
          -126 hlineto
          -43 -189 -46 -195 -50 -190 rrcurveto
          -10 hlineto
          hintmask 10110000
          -51 190 -47 198 -44 191 -129 -9 rcurveline
          56 -229 61 -226 68 -230 rrcurveto
          endchar
        </CharString>
        <CharString name="W">
          -46 callgsubr
          309 332 rmoveto
          90 -332 rlineto
          -101 callsubr
        </CharString>
        <CharString name="Wacute">
          -46 callgsubr
          185 810 -107 callgsubr
          124 -478 rmoveto
          90 -332 rlineto
          -101 callsubr
        </CharString>
        <CharString name="Wcircumflex">
          -46 callgsubr
          306 872 -92 callgsubr
          141 -427 rmoveto
          90 -332 rlineto
          -101 callsubr
        </CharString>
        <CharString name="Wdieresis">
          0 167 521 -20 103 -25 callgsubr
          50 123 -40.5 -72 callgsubr
          -47 119 hintmask 11101100
          132 771 -104 callsubr
          -71 -595 rmoveto
          90 -332 rlineto
          hintmask 11110010
          -101 callsubr
        </CharString>
        <CharString name="Wgrave">
          -46 callgsubr
          406 753 -100 callgsubr
          -97 -421 rmoveto
          90 -332 rlineto
          -101 callsubr
        </CharString>
        <CharString name="X">
          18 -21 24 -21 24 -21 685 -20 24 -20 hstemhm
          39 550 hintmask 00101100
          308 255 rmoveto
          hintmask 10001100
          140 -258 rlineto
          hintmask 00110100
          140 6 -195 340 196 345 rlineto
          -136 hlineto
          -133 -257 rlineto
          hintmask 01001100
          -142 261 -139 -7 195 -342 -194 -343 rlineto
          135 hlineto
          endchar
        </CharString>
        <CharString name="Y">
          -44 callgsubr
          249 hmoveto
          -80 callsubr
        </CharString>
        <CharString name="Yacute">
          -44 callgsubr
          184 812 -107 callgsubr
          65 -812 rmoveto
          -80 callsubr
        </CharString>
        <CharString name="Ycircumflex">
          -44 callgsubr
          305 874 -92 callgsubr
          82 -761 rmoveto
          -80 callsubr
        </CharString>
        <CharString name="Ydieresis">
          -30 callsubr
          23 -20 102 -25 callgsubr
          131.5 125 -7.5 128 1 125 hintmask 00000000
          hintmask 10111010
          131 773 -104 callsubr
          hintmask 11010100
          -130 -929 rmoveto
          128 228 hlineto
          218 460 rlineto
          -131 hlineto
          -147 -340 rlineto
          hintmask 10110100
          -153 343 -134 -5 219 -458 rlineto
          endchar
        </CharString>
        <CharString name="Ygrave">
          -44 callgsubr
          405 755 -100 callgsubr
          -156 -755 rmoveto
          -80 callsubr
        </CharString>
        <CharString name="Z">
          -20 callgsubr
          77 hmoveto
          -73 callgsubr
        </CharString>
        <CharString name="Zacute">
          -20 callgsubr
          195 810 -107 callgsubr
          -118 -810 rmoveto
          -73 callgsubr
        </CharString>
        <CharString name="Zcaron">
          -20 callgsubr
          329 751 -99 callgsubr
          -48 -907 rmoveto
          -73 callgsubr
        </CharString>
        <CharString name="Zdotaccent">
          0 109 470 109 83 156 hstem
          267 -45 callgsubr
          vstem
          265 771 -76 callsubr
          -192 -927 rmoveto
          -73 callgsubr
        </CharString>
        <CharString name="a">
          -89 callgsubr
          -50 callgsubr
          hintmask 00000000
          hintmask 01011110
          430 -4 rmoveto
          hintmask 00111110
          -102 callgsubr
          hintmask 10011110
          -103 callgsubr
        </CharString>
        <CharString name="aacute">
          -89 callgsubr
          222 -20 -50 callgsubr
          hintmask 10011111
          177 682 -107 callgsubr
          hintmask 01011111
          253 -686 -103 callsubr
        </CharString>
        <CharString name="abreve">
          -89 callgsubr
          70 98 -50 callgsubr
          hintmask 10011111
          309 634 -104 callgsubr
          hintmask 01011111
          121 -638 -103 callsubr
        </CharString>
        <CharString name="acircumflex">
          -89 callgsubr
          125 -20 33 -20 -50 callgsubr
          hintmask 1001101110000000
          298 744 rmoveto
          141 -114 75 72 -204 -67 callsubr
          -7 hlineto
          hintmask 1001110110000000
          -202 -169 rlineto
          hintmask 0101101110000000
          59 -58 rlineto
          270 -635 rmoveto
          hintmask 0011101110000000
          -102 callgsubr
          hintmask 1001101110000000
          -103 callgsubr
        </CharString>
        <CharString name="acute">
          778 -20 hstem
          167 319 vstem
          167 674 -107 callgsubr
          endchar
        </CharString>
        <CharString name="acute.cap">
          778 -20 hstem
          167 319 vstem
          167 674 -107 callgsubr
          endchar
        </CharString>
        <CharString name="adieresis">
          -89 callgsubr
          79 156 -6 callgsubr
          -70.5 -72 callgsubr
          -84 120 hintmask 1001110110000000
          124 643 -104 callsubr
          hintmask 0101110101000000
          58 -803 rmoveto
          hintmask 0011111001000000
          -102 callgsubr
          hintmask 1001111001000000
          -103 callgsubr
        </CharString>
        <CharString name="ae">
          -10 callgsubr
          20 callsubr
          hintmask 01101111
          568 -7 -36 callgsubr
          hintmask 10110111
          -40 callgsubr
          hintmask 01101111
          -37 callsubr
          hintmask 10101111
          -32 callgsubr
        </CharString>
        <CharString name="aeacute">
          -10 callgsubr
          218 -20 20 callsubr
          hintmask 0110111110000000
          182 675 -107 callgsubr
          386 -682 -36 callgsubr
          hintmask 1011011110000000
          -40 callgsubr
          hintmask 0110111110000000
          -37 callsubr
          hintmask 1010111110000000
          -32 callgsubr
        </CharString>
        <CharString name="agrave">
          -89 callgsubr
          214 -20 -50 callgsubr
          hintmask 10011111
          398 625 -100 callgsubr
          hintmask 01011111
          32 -629 -103 callsubr
        </CharString>
        <CharString name="amacron">
          -89 callgsubr
          106 105 -50 callgsubr
          hintmask 10011111
          501 670 -52 callsubr
          hintmask 01011111
          314 -674 -103 callsubr
        </CharString>
        <CharString name="ampersand">
          -14 99 505 112 hstemhm
          40 117 -31 123 hintmask 11100000
          491 -15 rmoveto
          100 76 -43 55 -39 48 -35 42 rlinecurve
          34 62 35 84 23 86 -104 12 rcurveline
          -12 -57 -18 -61 -20 -53 rrcurveto
          hintmask 11010000
          -110 129 -53 56 46 vvcurveto
          53 39 34 157 -7 vhcurveto
          -8 112 rlineto
          -237 5 -74 -102 -98 vvcurveto
          -45 21 -43 40 -55 vhcurveto
          hintmask 11100000
          -96 -60 -51 -68 -88 vvcurveto
          -92 57 -70 113 70 70 34 77 55 vhcurveto
          27 -34 28 -37 31 -41 rrcurveto
          -254 100 rmoveto
          -53 -27 39 50 46 25 45 51 41 hvcurveto
          32 -39 39 -46 45 -56 rrcurveto
          -54 -34 -38 -26 -40 hhcurveto
          endchar
        </CharString>
        <CharString name="ampersand_ampersand.liga">
          -107 -15 717 hstemhm
          518 150 hintmask 00000000
          hintmask 11000000
          514 702 rmoveto
          8 -112 rlineto
          -157 7 -39 -34 -53 vvcurveto
          -46 53 -56 110 -129 vhcurveto
          20 53 18 62 12 57 104 -13 rcurveline
          -23 -86 -35 -84 -34 -62 32 -39 rcurveline
          7 79 50 62 89 56 rrcurveto
          -40 55 -21 43 45 vvcurveto
          98 74 102 237 -5 vhcurveto
          7 -112 rlineto
          -157 7 -38 -35 -53 vvcurveto
          -46 53 -54 110 -129 vhcurveto
          20 53 18 60 12 57 104 -13 rcurveline
          -23 -86 -35 -83 -34 -62 35 -42 39 -48 43 -55 -100 -76 rcurveline
          -31 41 -28 37 -27 34 rrcurveto
          -77 -55 -70 -34 -70 hhcurveto
          -14 -13 1 2 -12 hvcurveto
          -55 7 -102 24 -73 77 rrcurveto
          -77 -55 -71 -34 -70 hhcurveto
          -113 -57 71 92 88 51 67 96 60 hvcurveto
          -40 55 -21 44 45 vvcurveto
          98 74 101 237 -5 vhcurveto
          -203 -397 rmoveto
          -51 -41 -26 -44 -46 vvcurveto
          -50 27 -39 53 40 37 26 54 34 vhcurveto
          -45 56 -37 45 -32 39 rrcurveto
          388 -131 rmoveto
          -50 27 -39 53 40 37 25 54 34 vhcurveto
          -45 56 -39 46 -32 39 rrcurveto
          -51 -41 -24 -44 -46 vvcurveto
          endchar
        </CharString>
        <CharString name="aogonek">
          -246 96 136 95 -57 -21 240.25 76.75 140 104 -6 callgsubr
          96 116 5 120 hintmask 00000000
          hintmask 10111110
          518 -246 8 callsubr
          105 46 vhcurveto
          hintmask 01011101
          -5 76 -6 87 108 vvcurveto
          216 -82 69 -333 5 vhcurveto
          -12 -104 237 -7 62 -27 7 -106 rlinecurve
          -234 9 -105 -89 -110 vvcurveto
          -90 67 -54 96 75 64 45 52 44 vhcurveto
          2 -21 5 -33 3 -19 rrcurveto
          hintmask 01011110
          -96 -52 -41 -46 -46 vvcurveto
          hintmask 10111110
          -58 63 -46 164 -8 vhcurveto
          hintmask 01011101
          -233 327 rmoveto
          -56 -34 27 51 61 45 37 172 -18 hvcurveto
          1 -38 0 -30 1 -28 rrcurveto
          -38 -35 -50 -24 -44 hhcurveto
          endchar
        </CharString>
        <CharString name="approxequal">
          105 104 3 103 35 104 2 105 -6 -20 hstemhm
          59 500 hintmask 00000000
          hintmask 01101100
          406 350 rmoveto
          69 41 59 116 43 hvcurveto
          -74 30 rlineto
          -60 -27 -22 -41 -27 hhcurveto
          hintmask 01010100
          -46 -54 107 -86 hhcurveto
          -72 -50 -65 -118 -42 hvcurveto
          72 -30 rlineto
          64 29 24 44 28 hhcurveto
          hintmask 01101100
          50 56 -106 88 hhcurveto
          hintmask 10010100
          -245 vmoveto
          69 41 59 116 43 hvcurveto
          -72 31 rlineto
          -60 -28 -22 -42 -28 hhcurveto
          hintmask 01010100
          -46 -54 106 -86 hhcurveto
          -72 -50 -64 -117 -42 hvcurveto
          73 -30 rlineto
          63 29 24 45 28 hhcurveto
          hintmask 10010100
          49 56 -107 88 hhcurveto
          endchar
        </CharString>
        <CharString name="aring">
          -89 callgsubr
          56 241 -50 callgsubr
          hintmask 10011111
          307 861 -82 callsubr
          hintmask 01011111
          123 -865 -103 callsubr
        </CharString>
        <CharString name="aringacute">
          -89 callgsubr
          -50 callgsubr
          hintmask 10011110
          177 953 -107 callgsubr
          130 -92 -82 callsubr
          hintmask 01011110
          123 -865 rmoveto
          hintmask 00111110
          -102 callgsubr
          hintmask 10011110
          -103 callgsubr
        </CharString>
        <CharString name="asciicircum">
          558 -20 hstem
          62 507 vstem
          308 399 rmoveto
          170 -236 91 64 -248 331 -22 -3 -237 -329 83 -63 rlineto
          endchar
        </CharString>
        <CharString name="asciitilde">
          210 112 33 112 hstem
          40 545 vstem
          420 210 rmoveto
          73 49 81 138 43 hvcurveto
          -79 31 rlineto
          -82 -29 -24 -56 -29 -49 -79 145 -88 hhcurveto
          -73 -54 -85 -134 -41 hvcurveto
          78 -30 rlineto
          81 28 25 56 29 49 83 -145 88 hhcurveto
          endchar
        </CharString>
        <CharString name="asterisk">
          272 498 hstem
          62 512 vstem
          305 401 rmoveto
          105 -129 70 43 -64 154 158 62 -19 78 -168 -13 -9 168 -83 6 -39 -164 -161 45 -33 -76 145 -89 -91 -139 62 -54 rlineto
          endchar
        </CharString>
        <CharString name="asterisk.alt">
          779 -20 hstemhm
          265 59 -22 58 hintmask 10100000
          301 610 rmoveto
          59 -11 52 158 -109 22 rlineto
          -79 -228 rmoveto
          39 47 -110 124 -73 -83 rlineto
          308 -66 rmoveto
          21 -59 163 36 -36 105 rlineto
          -299 -199 rmoveto
          -21 58 -163 -35 36 -104 rlineto
          314 104 rmoveto
          -41 -48 112 -124 72 83 rlineto
          hintmask 11000000
          -221 29 rmoveto
          -60 12 -53 -159 111 -21 rlineto
          endchar
        </CharString>
        <CharString name="at">
          -173.98 96.91 142.06999 95 272.35 100.65 129 98 hstem
          48 103 83 109 112 106 vstem
          510 -168 rmoveto
          -1 96 rlineto
          -292 -35 -66 139 253 vvcurveto
          258 98 119 108 62 28 -43 -86 7 vhcurveto
          -126 -2 -94 -77 -181 vvcurveto
          -126 -1 54 -82 73 hhcurveto
          42 30 19 37 30 hvcurveto
          2 -19 2 -25 -5 vvcurveto
          101 11 rlineto
          -2 93 -4 97 230 vvcurveto
          167 -59 90 -133 -185 -136 -192 -298 -290 108 -193 354 45 vhcurveto
          -109 328 rmoveto
          -39 -19 44 89 98 21 56 91 -18 hvcurveto
          -243 vlineto
          -16 -16 -17 -10 -21 hhcurveto
          endchar
        </CharString>
        <CharString name="atilde">
          -89 callgsubr
          74 99 -3 100 -50 callgsubr
          hintmask 1001110110000000
          393 638 -78 callgsubr
          hintmask 1001101110000000
          -85 callgsubr
          hintmask 1001110110000000
          -22 callsubr
          hintmask 0101110110000000
          37 -642 rmoveto
          hintmask 0011110110000000
          -102 callgsubr
          hintmask 1001110110000000
          -103 callgsubr
        </CharString>
        <CharString name="b">
          -14 8 callgsubr
          224 122 hintmask 11011100
          261 -14 rmoveto
          159 143 120 198 160 -85 103 -116 -59 -49 -26 -33 -37 hvcurveto
          281 vlineto
          hintmask 11101100
          -7 callgsubr
          -763 vlineto
          hintmask 11011100
          -19 51 55 -10 61 hhcurveto
          43 105 rmoveto
          -31 -27 5 11 -29 hvcurveto
          326 vlineto
          21 30 33 12 32 hhcurveto
          76 53 -65 -127 -125 -52 -58 -85 hvcurveto
          endchar
        </CharString>
        <CharString name="backslash">
          -206 1022 hstem
          -3 623 vstem
          620 -172 rmoveto
          -516 988 -107 -45 510 -977 rlineto
          endchar
        </CharString>
        <CharString name="bar">
          787 -20 hstem
          255 116 vstem
          371 797 rmoveto
          -116 -10 rlineto
          -990 116 vlineto
          endchar
        </CharString>
        <CharString name="bar_bar.liga">
          -107 -203 1000 hstem
          498 254 vstem
          382 787 rmoveto
          116 10 rlineto
          -1000 -116 vlineto
          370 hmoveto
          990 vlineto
          116 10 rlineto
          -1000 vlineto
          endchar
        </CharString>
        <CharString name="bar_greater.liga">
          -107 787 -20 hstem
          347 116 428 111 vstem
          347 -203 rmoveto
          107 hlineto
          548 448 rlineto
          103 vlineto
          -545 448 -110 -9 rlineto
          116 -843 rmoveto
          704 vlineto
          428 -346 rlineto
          -12 vlineto
          endchar
        </CharString>
        <CharString name="braceleft">
          -236 1050 -17 callsubr
          -236 -79 callsubr
        </CharString>
        <CharString name="braceleft.cap">
          -163 -21 -17 callsubr
          -184 -79 callsubr
        </CharString>
        <CharString name="braceright">
          -235 1050 -568 -21 callgsubr
          -135 16 callsubr
          hintmask 01100000
          -6 callsubr
          hintmask 01010000
          -70 callsubr
        </CharString>
        <CharString name="braceright.cap">
          -163 -21 482 -21 callgsubr
          -84 16 callsubr
          hintmask 11100000
          -6 callsubr
          hintmask 11010000
          -70 callsubr
        </CharString>
        <CharString name="bracketleft">
          -199 11 callgsubr
          775 -10 callsubr
        </CharString>
        <CharString name="bracketleft.cap">
          -147 11 callgsubr
          827 -10 callsubr
        </CharString>
        <CharString name="bracketright">
          -199 10 callgsubr
          -101 -9 callgsubr
        </CharString>
        <CharString name="bracketright.cap">
          -147 10 callgsubr
          -49 -9 callgsubr
        </CharString>
        <CharString name="breve">
          626 98 hstem
          94 438 vstem
          309 626 -104 callgsubr
          endchar
        </CharString>
        <CharString name="breve.cap">
          626 98 hstem
          94 438 vstem
          309 626 -104 callgsubr
          endchar
        </CharString>
        <CharString name="bullet">
          175 311 hstem
          152 319 vstem
          471 333 rmoveto
          92 -66 61 -90 -89 -74 -62 -95 -92 68 -62 90 88 73 62 96 vhcurveto
          endchar
        </CharString>
        <CharString name="bullet.alt">
          197 269 hstem
          178 268 vstem
          177 197 rmoveto
          268 hlineto
          2 269 rlineto
          -268 hlineto
          endchar
        </CharString>
        <CharString name="c">
          -51 callsubr
          hstemhm
          87 122 hintmask 10110000
          87 267 rmoveto
          hintmask 01110000
          -22 callgsubr
          hintmask 10110000
          12 101 rlineto
          -81 callgsubr
          endchar
        </CharString>
        <CharString name="cacute">
          -51 callsubr
          217 -20 hstemhm
          87 122 hintmask 10111000
          204 674 -107 callgsubr
          -117 -407 rmoveto
          hintmask 01111000
          -22 callgsubr
          hintmask 10111000
          12 101 rlineto
          -81 callgsubr
          endchar
        </CharString>
        <CharString name="caron">
          784 -20 hstem
          105 413 vstem
          309 615 -99 callgsubr
          endchar
        </CharString>
        <CharString name="caron.alt">
          612 283 hstem
          243 119 vstem
          223 628 -77 callsubr
          endchar
        </CharString>
        <CharString name="caron.alt.cap">
          612 283 hstem
          243 119 vstem
          223 628 -77 callsubr
          endchar
        </CharString>
        <CharString name="caron.cap">
          784 -20 hstem
          105 413 vstem
          309 615 -99 callgsubr
          endchar
        </CharString>
        <CharString name="ccaron">
          -51 callsubr
          223 -20 hstemhm
          87 122 hintmask 10111000
          338 615 -99 callgsubr
          -47 -504 rmoveto
          hintmask 01111000
          -22 callgsubr
          hintmask 10111000
          12 101 rlineto
          -81 callgsubr
          endchar
        </CharString>
        <CharString name="ccedilla">
          -4 101 347 117 hstem
          87 122 146 110 vstem
          465 -131 rmoveto
          40 -31 43 -84 44 vhcurveto
          49 -5 57 -1 67 6 12 101 rcurveline
          -81 callgsubr
          -119 45 -99 143 -39 vhcurveto
          -18 -42 -67 callgsubr
          endchar
        </CharString>
        <CharString name="cdotaccent">
          -51 callsubr
          74 -25 callgsubr
          87 122 66 -45 callgsubr
          hintmask 10111100
          273 635 -76 callsubr
          -190 -524 rmoveto
          hintmask 01111100
          -22 callgsubr
          hintmask 10111100
          12 101 rlineto
          -81 callgsubr
          endchar
        </CharString>
        <CharString name="cedilla">
          -246 282 hstem
          351 110 vstem
          279 36 rmoveto
          -26 -59 -67 callgsubr
          49 -48 55 -134 54 vhcurveto
          endchar
        </CharString>
        <CharString name="cedilla.cap">
          -246 282 hstem
          351 110 vstem
          279 36 rmoveto
          -26 -59 -67 callgsubr
          49 -48 55 -134 54 vhcurveto
          endchar
        </CharString>
        <CharString name="cent">
          34 103 299 107 145 -20 hstem
          83 117 vstem
          505 34 rmoveto
          13 103 -52 3 -45 4 -39 7 rlinecurve
          36 285 rlineto
          33 36 -2 -4 42 hvcurveto
          14 113 -38 2 -34 0 -32 -1 rlinecurve
          20 144 rlineto
          -107 hlineto
          -17 -153 rlineto
          -197 -33 -55 -106 -103 vvcurveto
          -100 52 -82 143 -44 vhcurveto
          -23 -160 rlineto
          106 hlineto
          15 139 39 -6 42 -4 48 -2 rlinecurve
          -305 273 rmoveto
          57 27 50 109 16 vhcurveto
          -33 -257 rlineto
          -72 28 -31 45 61 vvcurveto
          endchar
        </CharString>
        <CharString name="circumflex">
          694 -20 hstem
          105 413 vstem
          302 736 -92 callgsubr
          endchar
        </CharString>
        <CharString name="circumflex.cap">
          694 -20 hstem
          105 413 vstem
          302 736 -92 callgsubr
          endchar
        </CharString>
        <CharString name="colon">
          0 155 201 -25 callgsubr
          225.5 169 -160.5 168 hintmask 11010000
          233 356 7 callgsubr
          -12 -512 rmoveto
          169 hlineto
          5 -8 callgsubr
        </CharString>
        <CharString name="colon.alt">
          88 155 201 -25 callgsubr
          229.5 168.5 -164 168 hintmask 00000000
          hintmask 11010000
          233 444 7 callgsubr
          -6 -512 rmoveto
          168 hlineto
          2 -8 callgsubr
        </CharString>
        <CharString name="colonmonetary">
          555 110 hstemhm
          70 110 88 84 0 82 -17 83 hintmask 00000000
          hintmask 11010000
          358 47 rmoveto
          -12 -129 rlineto
          83 hlineto
          10 115 rlineto
          hintmask 11101000
          78 -9 22 104 -36 4 -34 4 -30 4 rlinecurve
          36 410 28 2 31 2 34 1 rlinecurve
          -6 110 -24 -1 -22 -1 -21 -2 rlinecurve
          10 108 rlineto
          -83 hlineto
          -10 -118 -24 -4 -22 -5 -20 -5 rlinecurve
          12 132 rlineto
          -84 hlineto
          -12 -160 rlineto
          -146 -61 -46 -104 -113 vvcurveto
          -117 45 -74 100 -48 vhcurveto
          -18 -174 rlineto
          hintmask 11010000
          84 hlineto
          13 144 20 -6 21 -5 23 -4 rlinecurve
          51 495 rmoveto
          -34 -391 -27 6 -23 6 -21 7 rlinecurve
          32 358 22 5 24 5 27 4 rlinecurve
          hintmask 11101000
          -229 -192 rmoveto
          67 22 51 66 34 vhcurveto
          -26 -299 rlineto
          -43 32 -19 46 69 vvcurveto
          endchar
        </CharString>
        <CharString name="comma">
          -170 -21 hstem
          258.5 139.46 vstem
          204 -172 rmoveto
          66 -19 97 88 64 144 -51 124 rlinecurve
          -157 -8 56 -117 -11 -131 -64 -81 rlinecurve
          endchar
        </CharString>
        <CharString name="copyright">
          8 64 96 76 197 84 91 64 hstem
          49 69 82 84 223 69 vstem
          576 349 rmoveto
          206 -105 125 -148 -154 -120 -135 -205 -215 112 -117 155 148 112 125 216 vhcurveto
          -458 -5 rmoveto
          173 85 99 118 111 75 -99 -173 -182 -75 -90 -112 -115 -87 91 181 vhcurveto
          275 -176 rmoveto
          8 76 rlineto
          -92 -3 -25 33 78 vvcurveto
          57 15 32 99 vhcurveto
          -6 84 rlineto
          -145 -9 -47 -79 -93 vvcurveto
          -107 47 -79 146 10 vhcurveto
          endchar
        </CharString>
        <CharString name="d">
          -21 callsubr
          hintmask 10010111
          416 53 rmoveto
          hintmask 01010111
          7 -56 rlineto
          hintmask 00110111
          114 -15 callgsubr
          235 vlineto
          hintmask 10011011
          -28 callgsubr
          hintmask 10010111
          -47 callsubr
        </CharString>
        <CharString name="dagger">
          510.5 97 -93 98 163.5 -20 hstemhm
          256.5 102.5 -102 116 hintmask 10110000
          275 113 rmoveto
          74 37 20 362 177 -3 6 97 rlineto
          hintmask 10101000
          20 callgsubr
          hintmask 01101000
          -165 vlineto
          -173 3 -5 -98 rlineto
          hintmask 01110000
          178 -3 -1 -391 rlineto
          endchar
        </CharString>
        <CharString name="daggerdbl">
          290.5 93 -89 93 127 93 -89 94 163.5 -20 hstemhm
          257 97.5 -97.5 116 hintmask 01101100
          276 55 rmoveto
          74 37 rlineto
          hintmask 10101100
          9 200 180 -3 6 93 -182 3 6 131 177 -3 6 93 rlineto
          hintmask 01101010
          20 callgsubr
          hintmask 01011010
          -165 vlineto
          -173 3 -5 -94 rlineto
          hintmask 01011100
          178 -3 rlineto
          -131 vlineto
          -180 3 -5 -93 185 -3 rlineto
          -229 vlineto
          endchar
        </CharString>
        <CharString name="dcaron">
          -21 callsubr
          95 119 hintmask 1001011110000000
          603 628 -77 callsubr
          -187 -575 rmoveto
          hintmask 0101011110000000
          7 -56 rlineto
          hintmask 0011011110000000
          114 -15 callgsubr
          235 vlineto
          hintmask 1001101110000000
          -28 callgsubr
          hintmask 1001011110000000
          -47 callsubr
        </CharString>
        <CharString name="dcroat">
          -14 101 -69 -21 27 -21 456 103 71 77 73 17 callgsubr
          222 123 hintmask 10011111
          415 52 rmoveto
          hintmask 01011111
          7 -55 rlineto
          hintmask 00111111
          115 -15 callgsubr
          78 69 78 -69 73 vlineto
          -7 callgsubr
          -62 -136 -77 136 -72 vlineto
          1 -9 -8 0 -9 hhcurveto
          -175 -143 -114 -201 hvcurveto
          hintmask 10011111
          -165 86 -96 117 63 51 30 36 37 vhcurveto
          -101 35 rmoveto
          -77 -54 59 132 120 59 61 85 24 26 -5 -9 28 hvcurveto
          -133 1 -106 2 -86 vhcurveto
          -20 -27 -30 -13 -37 hhcurveto
          endchar
        </CharString>
        <CharString name="degree">
          334 91 240 92 hstem
          106 99 215 98 vstem
          518 550 0 callgsubr
          -85 80 -113 -113 -101 -85 -131 -128 86 -79 113 113 100 84 132 vhcurveto
          -98 -2 rmoveto
          -76 -1 -46 -47 -61 hhcurveto
          -63 -45 51 69 1 hvcurveto
          73 46 47 61 63 45 -51 -66 vhcurveto
          endchar
        </CharString>
        <CharString name="dieresis">
          635 156 hstem
          128.5 -72 callgsubr
          vstem
          128 635 -104 callsubr
          endchar
        </CharString>
        <CharString name="dieresis.cap">
          635 156 hstem
          128.5 -72 callgsubr
          vstem
          128 635 -104 callsubr
          endchar
        </CharString>
        <CharString name="divide">
          70 123 86 103 86 123 hstem
          248 128 vstem
          248 468 -26 callsubr
          3 123 rlineto
          -11 callgsubr
          304 -312 rmoveto
          103 -484 -103 vlineto
          177 -209 rmoveto
          128 hlineto
          2 123 rlineto
          -11 callgsubr
          endchar
        </CharString>
        <CharString name="dollar">
          553 99 124 -20 hstem
          91 131 187 132 vstem
          178 -87 rmoveto
          109 -1 20 125 rlineto
          168 16 66 68 74 vvcurveto
          1 77 -94 60 -85 52 30 165 rcurveline
          35 -4 43 -6 49 -10 15 114 rcurveline
          -38 5 -35 3 -33 2 25 122 rcurveline
          -109 1 -22 -124 rlineto
          -167 -14 -65 -69 -74 vvcurveto
          -1 -75 94 -58 86 -51 -32 -173 rcurveline
          -41 3 -48 6 -56 10 -22 -114 rcurveline
          -6 48 43 -3 40 hhcurveto
          20 471 rmoveto
          1 29 29 18 70 1 -24 -129 rcurveline
          -44 29 -32 26 26 vvcurveto
          187 -315 rmoveto
          -31 -30 -19 -70 -4 vhcurveto
          25 136 rlineto
          43 -28 32 -27 -27 vvcurveto
          endchar
        </CharString>
        <CharString name="dotaccent">
          635 156 hstem
          248 -45 callgsubr
          vstem
          246 635 -76 callsubr
          endchar
        </CharString>
        <CharString name="dotaccent.cap">
          635 156 hstem
          248 -45 callgsubr
          vstem
          246 635 -76 callsubr
          endchar
        </CharString>
        <CharString name="dotlessi">
          0 -71 callgsubr
          -19 callsubr
          82 hmoveto
          -33 callgsubr
          -84 callgsubr
          vlineto
          endchar
        </CharString>
        <CharString name="e">
          -80 callgsubr
          -59 callsubr
          522 -13 -107 callsubr
        </CharString>
        <CharString name="eacute">
          -80 callgsubr
          220 -20 -59 callsubr
          191 683 -107 callgsubr
          331 -696 -107 callsubr
        </CharString>
        <CharString name="ebreve">
          -80 callgsubr
          68 98 -59 callsubr
          323 635 -104 callgsubr
          199 -648 -107 callsubr
        </CharString>
        <CharString name="ecaron">
          -80 callgsubr
          213 -20 -59 callsubr
          326 624 -99 callgsubr
          400 -793 -107 callsubr
        </CharString>
        <CharString name="ecircumflex">
          -80 callgsubr
          123 -20 33 -20 hstemhm
          71 121 241 119.11 hintmask 11101110
          312 745 rmoveto
          141 -114 75 72 -204 -67 callsubr
          -7 hlineto
          hintmask 11110110
          -202 -169 rlineto
          hintmask 11101110
          59 -58 rlineto
          348 -645 -107 callsubr
        </CharString>
        <CharString name="edieresis">
          -80 callgsubr
          77 -25 callgsubr
          71 121 -53.5 -72 callgsubr
          -77 119.11 hintmask 11110110
          138 644 -104 callsubr
          hintmask 11111001
          136 -813 -107 callsubr
        </CharString>
        <CharString name="edotaccent">
          -80 callgsubr
          77 156 hstem
          71 121 71 -45 callgsubr
          42.5 119.11 vstem
          261 644 -76 callsubr
          257 -813 -107 callsubr
        </CharString>
        <CharString name="egrave">
          -80 callgsubr
          212 -20 -59 callsubr
          413 626 -100 callgsubr
          109 -639 -107 callsubr
        </CharString>
        <CharString name="eight">
          -14 93 530 94 hstemhm
          77 117 -106 117 216 114 -105 119 hintmask 00000000
          hintmask 11100100
          300 -14 rmoveto
          153 96 85 108 85 -71 52 -77 44 hvcurveto
          hintmask 11011000
          84 43 50 54 82 vvcurveto
          100 -94 64 -121 -151 -81 -94 -92 -77 60 -52 70 -44 vhcurveto
          hintmask 11100100
          -87 -46 -54 -62 -80 vvcurveto
          -104 94 -66 129 vhcurveto
          hintmask 11011000
          -95 546 rmoveto
          40 36 37 71 73 36 -40 -53 -47 -31 -42 -53 -31 vhcurveto
          -71 39 -61 38 59 vvcurveto
          hintmask 11100100
          108 -453 rmoveto
          -81 -38 43 59 50 31 44 54 33 hvcurveto
          79 -45 72 -40 -60 vvcurveto
          -48 -45 -36 -72 vhcurveto
          endchar
        </CharString>
        <CharString name="eight.den">
          -244 71 178 -21 31 -21 151 -44 callsubr
          hintmask 10111001
          303 -244 rmoveto
          -71 callsubr
          hintmask 10110110
          -81 callsubr
          vhcurveto
          hintmask 11010101
          -39 callsubr
          hintmask 10111001
          -42 callsubr
          hintmask 10110110
          -91 callgsubr
          hintmask 10111001
          -93 callsubr
        </CharString>
        <CharString name="eight.inf">
          -178 -45 callsubr
          -178 -93 callgsubr
        </CharString>
        <CharString name="eight.num">
          461 71 157 -20 30 -20 171 -44 callsubr
          hintmask 10111001
          303 461 rmoveto
          -71 callsubr
          hintmask 11010110
          -63 callsubr
          hintmask 11011001
          -65 -26 -37 -38 -51 vvcurveto
          hintmask 10111001
          -66 64 -47 105 vhcurveto
          hintmask 10110110
          -91 callgsubr
          hintmask 10111001
          -93 callsubr
        </CharString>
        <CharString name="eight.small">
          -11 -45 callsubr
          -11 -93 callgsubr
        </CharString>
        <CharString name="eight.sup">
          350 -45 callsubr
          350 -93 callgsubr
        </CharString>
        <CharString name="ellipsis">
          0 163 hstem
          45 127 76 127 76 127 vstem
          42 hmoveto
          -9 callsubr
          197 -163 rmoveto
          -9 callsubr
          197 -163 rmoveto
          -9 callsubr
          endchar
        </CharString>
        <CharString name="emacron">
          -80 callgsubr
          104 105 -59 callsubr
          515 671 -52 callsubr
          392 -684 -107 callsubr
        </CharString>
        <CharString name="emdash">
          284 93 hstem
          68 495 vstem
          556 284 rmoveto
          7 93 rlineto
          -495 -93 hlineto
          endchar
        </CharString>
        <CharString name="endash">
          284 93 hstem
          85 461 vstem
          535 284 rmoveto
          11 93 rlineto
          -461 -93 hlineto
          endchar
        </CharString>
        <CharString name="eogonek">
          -246 96 151 89 -78 -21 257.5 74.5 144 100 hstemhm
          71 121 74 117 50 119.11 hintmask 11011111
          493 -246 rmoveto
          11 96 rlineto
          -89 8 -32 18 24 vvcurveto
          hintmask 10111111
          22 31 30 108 39 vhcurveto
          hintmask 11011111
          12 99 -245 5 -83 37 -13 112 rlinecurve
          356 9 rlineto
          192 20 -74 122 -155 hhcurveto
          -145 -124 -130 -171 -166 90 -99 240 hvcurveto
          -95 -48 -40 -45 -45 vvcurveto
          -54 63 -47 164 -8 vhcurveto
          -175 713 rmoveto
          78 34 -54 -90 3 hvcurveto
          -69 -1 -113 -4 -59 -1 rrcurveto
          103 6 45 47 75 hhcurveto
          endchar
        </CharString>
        <CharString name="equal">
          160 18 callgsubr
          87 451 vstem
          538 404 rmoveto
          104 -451 -104 vlineto
          451 -244 rmoveto
          104 -451 -104 vlineto
          endchar
        </CharString>
        <CharString name="equal_equal.liga">
          -107 160 105 138 105 5 callsubr
          87 403 rmoveto
          1076 105 -1076 hlineto
          1076 -243 rmoveto
          -1076 -105 1076 hlineto
          endchar
        </CharString>
        <CharString name="equal_equal_equal.liga">
          518 186 100 204 104 3 callsubr
          1788 490 rmoveto
          104 -1701 -104 vlineto
          1701 -100 rmoveto
          -104 -1701 104 vlineto
          -204 vmoveto
          1701 -104 -1701 hlineto
          endchar
        </CharString>
        <CharString name="equal_equal_greater.liga">
          518 160 18 callgsubr
          1677 111 vstem
          87 160 rmoveto
          1389 hlineto
          -124 -100 -2 callgsubr
          105 -84 rlineto
          -1373 -104 1503 hlineto
          87 -70 rlineto
          -12 vlineto
          -72 -58 rlineto
          -1518 hlineto
          endchar
        </CharString>
        <CharString name="equal_greater.liga">
          -107 60 100 104 140 104 84 5 callsubr
          800 680 rmoveto
          363 -300 rlineto
          -103 vlineto
          -370 -303 -67 86 125 100 rlineto
          -764 104 894 hlineto
          71 58 rlineto
          12 vlineto
          -88 70 rlineto
          -877 104 749 hlineto
          -106 84 rlineto
          endchar
        </CharString>
        <CharString name="eth">
          -16 100 330.62 97.38 188 -20 111 -20 hstem
          63 120 258 117 vstem
          299 -16 rmoveto
          139 120 106 198 135 -48 115 -100 107 hvcurveto
          89 40 -26 70 -121 -55 -36 31 -40 30 -46 30 rlinecurve
          -79 -74 34 -22 31 -22 28 -23 rlinecurve
          -111 -50 27 -69 143 65 27 -27 23 -28 19 -29 rlinecurve
          -160 4 -149 -93 -183 vvcurveto
          -160 106 -96 130 vhcurveto
          15 100 rmoveto
          -73 -58 65 106 127 77 67 165 -52 hvcurveto
          11 -39 5 -40 -42 vvcurveto
          -128 -48 -64 -79 vhcurveto
          endchar
        </CharString>
        <CharString name="exclam">
          0 145 hstemhm
          229 159 -114 81 hintmask 00000000
          hintmask 10100000
          274 271 rmoveto
          81 hlineto
          2 50 41 378 2 53 rrcurveto
          -157 hlineto
          1 -53 30 -378 -50 vvcurveto
          hintmask 11000000
          -47 -271 rmoveto
          159 hlineto
          4 145 rlineto
          -159 hlineto
          endchar
        </CharString>
        <CharString name="exclam_equal.liga">
          -107 264 140 5 callsubr
          87 160 rmoveto
          104 430 vlineto
          72 140 rlineto
          -502 104 555 hlineto
          160 314 105 -50 -135 -264 rlineto
          391 -104 -444 hlineto
          -71 -140 rlineto
          515 -104 -568 hlineto
          -195 -382 -106 48 170 334 rlineto
          endchar
        </CharString>
        <CharString name="exclam_equal_equal.liga">
          518 186 100 104 100 3 callsubr
          1104 822 rmoveto
          105 -50 -91 -178 rlineto
          670 -104 -723 hlineto
          -51 -100 rlineto
          774 -104 -827 hlineto
          -51 -100 rlineto
          878 -104 -931 hlineto
          -155 -304 -106 48 131 256 rlineto
          -640 104 693 hlineto
          51 100 rlineto
          -744 104 797 hlineto
          51 100 rlineto
          -848 104 901 hlineto
          endchar
        </CharString>
        <CharString name="exclamdown">
          544 145 hstemhm
          237.5 158.5 -127 82 hintmask 11000000
          397 689 rmoveto
          -158 hlineto
          -3 -145 rlineto
          159 hlineto
          hintmask 10100000
          -44 -126 rmoveto
          -82 hlineto
          -1 -50 -41 -378 -3 -53 rrcurveto
          158 hlineto
          -1 53 -30 378 50 vvcurveto
          endchar
        </CharString>
        <CharString name="f">
          0 92 344 93 144 119 hstem
          231 123 vstem
          519 hmoveto
          11 92 rlineto
          -176 344 187 93 -187 20 hlineto
          99 21 18 203 7 vhcurveto
          -8 119 rlineto
          -258 -13 -81 -106 -142 vvcurveto
          -2 -135 vlineto
          -11 -93 rlineto
          146 -344 -139 -92 hlineto
          endchar
        </CharString>
        <CharString name="five">
          6 -21 596.5 106.5 hstem
          -45 callgsubr
          108.5 186 114 vstem
          536 232 rmoveto
          88 -71 78 -234 29 vhcurveto
          10 155 265 -1 10 107 rlineto
          -378 hlineto
          -21 -341 rlineto
          226 -22 79 -44 -56 vvcurveto
          -71 -80 -35 -243 -21 vhcurveto
          7 -113 rlineto
          300 21 130 99 127 vvcurveto
          endchar
        </CharString>
        <CharString name="five.den">
          -246 -62 callsubr
          -88 -106 callsubr
          endchar
        </CharString>
        <CharString name="five.inf">
          -180 -62 callsubr
          -22 -106 callsubr
          endchar
        </CharString>
        <CharString name="five.num">
          459 88 281 82 hstem
          171.5 84 136.5 92 vstem
          -60 callsubr
          endchar
        </CharString>
        <CharString name="five.small">
          -13 -62 callsubr
          145 -106 callsubr
          endchar
        </CharString>
        <CharString name="five.sup">
          348 -62 callsubr
          506 -106 callsubr
          endchar
        </CharString>
        <CharString name="fiveeighths">
          -42 callgsubr
          83 79 81 -18 callsubr
          hstemhm
          134 95 -87 97 -67.5 84 136.5 92 -91 98 hintmask 1011111001100000
          -66 callsubr
          hintmask 1011111100010000
          -248 -622 rmoveto
          -71 callsubr
          hintmask 1011111010100000
          -49 callgsubr
          hintmask 1011111010100000
          -91 callgsubr
          hintmask 1011111100010000
          -93 callsubr
        </CharString>
        <CharString name="four">
          21 -21 130 106 451 -20 29 -20 hstemhm
          88 97 201 113 hintmask 11011100
          499 130 rmoveto
          69 hlineto
          13 callsubr
          -79 242 hlineto
          -113 -13 rlineto
          -229 -201 vlineto
          hintmask 11101100
          2 32 90 366 12 53 rrcurveto
          hintmask 11011100
          -131 9 -49 -202 -26 -221 5 -143 rlinecurve
          298 -130 113 hlineto
          endchar
        </CharString>
        <CharString name="four.den">
          -150 -1 callsubr
          -150 -96 callsubr
          endchar
        </CharString>
        <CharString name="four.inf">
          -84 78 22 -21 hstemhm
          -47 callgsubr
          hintmask 10100000
          452 -84 rmoveto
          52 -1 7 80 -60 -1 2 143 -91 -8 1 -136 rlineto
          hintmask 01100000
          -138 2 1 18 63 229 9 29 rlinecurve
          -105 7 rlineto
          hintmask 10100000
          -36 -129 -18 -142 3 -92 221 2 rcurveline
          -1 -84 rlineto
          91 hlineto
          endchar
        </CharString>
        <CharString name="four.num">
          555 78 143 -20 1 callsubr
          555 -96 callsubr
          endchar
        </CharString>
        <CharString name="four.small">
          0 161 -78 78 hstemhm
          -47 callgsubr
          hintmask 00000000
          hintmask 01100000
          452 83 rmoveto
          52 -1 rlineto
          hintmask 10100000
          7 80 -60 -1 2 143 -91 -8 1 -136 -138 2 1 18 63 229 9 29 rlinecurve
          -105 7 rlineto
          hintmask 01100000
          -36 -129 -18 -142 3 -92 221 2 rcurveline
          hintmask 10100000
          -1 -84 rlineto
          91 hlineto
          endchar
        </CharString>
        <CharString name="four.sup">
          444 -1 callsubr
          444 -96 callsubr
          endchar
        </CharString>
        <CharString name="fraction">
          -178 1019 hstem
          33 552 vstem
          33 -135 rmoveto
          104 -43 448 976 -104 43 rlineto
          endchar
        </CharString>
        <CharString name="fraction.afrc">
          299 79 hstem
          74 477 vstem
          74 378 -64 callgsubr
          endchar
        </CharString>
        <CharString name="g">
          -23 callsubr
          hstem
          64 121 225 123 vstem
          131 -84 -99 callsubr
        </CharString>
        <CharString name="gbreve">
          -23 callsubr
          67 98 hstem
          64 121 225 123 vstem
          328 633 -104 callgsubr
          -197 -717 -99 callsubr
        </CharString>
        <CharString name="gdotaccent">
          -23 callsubr
          76 -25 callgsubr
          64 121 82 -45 callgsubr
          15.5 123 hintmask 00000000
          hintmask 11111110
          265 642 -76 callsubr
          hintmask 11111010
          -138 -882 -99 callsubr
        </CharString>
        <CharString name="germandbls">
          -8 104.84 -96.84 96.84 589.16 105 hstemhm
          84 121 86 119 -20 123 -45 124 hintmask 10111010
          410 396 rmoveto
          hintmask 01110100
          56 103 50 125 vvcurveto
          78 -54 86 -126 -161 -88 -122 -161 vhcurveto
          -508 121 534 vlineto
          105 33 47 68 57 27 -41 -45 vhcurveto
          -80 -99 -55 -85 vvcurveto
          hintmask 10111010
          -127 177 -25 -73 vvcurveto
          -44 -48 -24 -122 13 vhcurveto
          -5 -108 rlineto
          230 -9 69 90 88 131 -182 34 70 vvcurveto
          endchar
        </CharString>
        <CharString name="grave">
          617 253 hstem
          150 318 vstem
          433 617 -100 callgsubr
          endchar
        </CharString>
        <CharString name="grave.cap">
          617 253 hstem
          150 318 vstem
          433 617 -100 callgsubr
          endchar
        </CharString>
        <CharString name="greater">
          -27 707 hstem
          421 111 vstem
          96 60 rmoveto
          -2 callgsubr
          322 -258 rlineto
          -12 vlineto
          endchar
        </CharString>
        <CharString name="greater_equal.liga">
          -107 -175 905 hstem
          276 686 vstem
          348 730 rmoveto
          614 -300 rlineto
          -103 vlineto
          -620 -304 -66 87 575 262 rlineto
          12 vlineto
          -572 258 rlineto
          63 -817 rmoveto
          620 304 rlineto
          107 vlineto
          -676 -326 rlineto
          endchar
        </CharString>
        <CharString name="greaterequal">
          8 103 hstem
          406 128 vstem
          103 584 rmoveto
          303 -174 rlineto
          -8 vlineto
          -304 -147 40 -96 393 194 -2 94 -381 229 rlineto
          389 -565 rmoveto
          -457 -103 457 hlineto
          endchar
        </CharString>
        <CharString name="guillemotleft">
          574 -20 hstem
          42 549 vstem
          42 216 -58 callgsubr
        </CharString>
        <CharString name="guillemotleft.cap">
          568 -20 hstem
          42 549 vstem
          42 282 -58 callgsubr
        </CharString>
        <CharString name="guillemotright">
          574 -20 hstem
          33 550 vstem
          33 51 -54 callsubr
        </CharString>
        <CharString name="guillemotright.cap">
          570 -20 hstem
          33 550 vstem
          33 117 -54 callsubr
        </CharString>
        <CharString name="guilsinglleft">
          -21 596 hstem
          140 349 vstem
          140 216 -25 callsubr
        </CharString>
        <CharString name="guilsinglleft.cap">
          555 -20 hstem
          140 349 vstem
          140 282 -25 callsubr
        </CharString>
        <CharString name="guilsinglright">
          -21 596 hstem
          136 349 vstem
          136 65 -23 callgsubr
        </CharString>
        <CharString name="guilsinglright.cap">
          555 -20 hstem
          136 349 vstem
          136 131 -23 callgsubr
        </CharString>
        <CharString name="h">
          21 -21 462 105 21 callgsubr
          92 123 203 123 hintmask 11011100
          325 462 rmoveto
          57 36 -31 -98 hvcurveto
          -333 123 376 vlineto
          135 -62 56 -97 -70 -54 -29 -36 -43 vhcurveto
          287 vlineto
          hintmask 11101100
          -7 callgsubr
          -778 123 427 vlineto
          hintmask 11011100
          22 33 36 13 41 hhcurveto
          endchar
        </CharString>
        <CharString name="hbar">
          21 -21 462 101 70 77 68 12 callsubr
          92 123 203 123 hintmask 11101110
          325 462 rmoveto
          57 36 -31 -98 hvcurveto
          -333 123 376 vlineto
          132 -62 55 -97 -70 -54 -29 -35 -43 vhcurveto
          134 137 77 -137 79 vlineto
          hintmask 11110110
          -7 callgsubr
          -68 -70 -78 70 -632 123 427 vlineto
          hintmask 11101110
          22 33 36 13 41 hhcurveto
          endchar
        </CharString>
        <CharString name="hungarumlaut">
          625 261 hstem
          141 468 vstem
          141 662 -94 callsubr
          endchar
        </CharString>
        <CharString name="hungarumlaut.cap">
          625 261 hstem
          141 468 vstem
          141 662 -94 callsubr
          endchar
        </CharString>
        <CharString name="hyphen">
          278 105 hstem
          138 356 vstem
          484 278 rmoveto
          10 105 rlineto
          -356 -105 hlineto
          endchar
        </CharString>
        <CharString name="hyphen_greater.liga">
          -107 278 105 5 callsubr
          793 -26 rmoveto
          370 303 rlineto
          103 vlineto
          -364 299 -68 -87 259 -209 rlineto
          -903 -105 912 hlineto
          -271 -218 rlineto
          endchar
        </CharString>
        <CharString name="hyphen_hyphen.liga">
          -107 278 105 hstem
          207 836 vstem
          207 383 rmoveto
          356 hlineto
          -10 -105 rlineto
          -346 hlineto
          836 105 rmoveto
          -356 -105 346 hlineto
          endchar
        </CharString>
        <CharString name="hyphen_hyphen_greater.liga">
          518 383 209 3 callsubr
          1418 -26 rmoveto
          -66 85 272 219 rlineto
          -1537 105 1528 hlineto
          -260 209 70 88 363 -300 rlineto
          -103 vlineto
          endchar
        </CharString>
        <CharString name="i">
          0 -71 callgsubr
          83 -25 callgsubr
          272 0 callsubr
          hintmask 11110000
          -2 callsubr
          -194 -791 rmoveto
          -33 callgsubr
          hintmask 11101000
          -84 callgsubr
          vlineto
          endchar
        </CharString>
        <CharString name="iacute">
          0 -71 callgsubr
          226 -20 -19 callsubr
          206 674 -107 callgsubr
          -124 -674 rmoveto
          -33 callgsubr
          -84 callgsubr
          vlineto
          endchar
        </CharString>
        <CharString name="ibreve">
          0 -71 callgsubr
          74 98 -19 callsubr
          338 626 -104 callgsubr
          -256 -626 rmoveto
          -33 callgsubr
          -84 callgsubr
          vlineto
          endchar
        </CharString>
        <CharString name="icircumflex">
          0 -71 callgsubr
          142 -20 -19 callsubr
          327 736 -92 callgsubr
          -107 -623 rmoveto
          -33 callgsubr
          -84 callgsubr
          vlineto
          endchar
        </CharString>
        <CharString name="idieresis">
          0 -71 callgsubr
          83 -25 callgsubr
          153.5 125 -3.5 124 1 125 hintmask 00000000
          hintmask 11110100
          153 635 -104 callsubr
          -319 -791 rmoveto
          -33 callgsubr
          hintmask 11101000
          -84 callgsubr
          vlineto
          endchar
        </CharString>
        <CharString name="igrave">
          0 -71 callgsubr
          -19 callsubr
          427 617 -100 callgsubr
          -345 -617 rmoveto
          -33 callgsubr
          -84 callgsubr
          vlineto
          endchar
        </CharString>
        <CharString name="imacron">
          0 -71 callgsubr
          110 105 -19 callsubr
          530 662 -52 callsubr
          -63 -662 rmoveto
          -33 callgsubr
          -84 callgsubr
          vlineto
          endchar
        </CharString>
        <CharString name="iogonek">
          -249 97 152 -71 callgsubr
          83 -25 callgsubr
          184 117 -29 0 callsubr
          hintmask 01110100
          -2 callsubr
          hintmask 11111000
          135 -1040 rmoveto
          11 97 rlineto
          -89 8 -32 17 26 vvcurveto
          25 21 30 70 46 vhcurveto
          189 hlineto
          10 92 rlineto
          hintmask 01110010
          -84 callgsubr
          -92 vlineto
          hintmask 01111000
          201 hlineto
          -69 -49 -30 -43 -43 vvcurveto
          hintmask 11111000
          -59 63 -47 164 -8 vhcurveto
          endchar
        </CharString>
        <CharString name="j">
          -194 115 539 92 83 -25 callgsubr
          315.5 -45 callgsubr
          -120 123 hintmask 00000000
          hintmask 11110000
          313 635 -26 callsubr
          6 -67 callsubr
          -11 callgsubr
          hintmask 11101000
          128 -239 rmoveto
          -341 hlineto
          -9 -86 227 -12 rlineto
          -412 vlineto
          -97 -26 -17 -228 -7 vhcurveto
          -4 -115 rlineto
          287 6 94 93 163 vvcurveto
          endchar
        </CharString>
        <CharString name="k">
          -36 callsubr
          hintmask 0011010110000000
          293 238 rmoveto
          hintmask 1001010110000000
          165 -246 rlineto
          hintmask 0011100110000000
          2 callgsubr
          hintmask 0011010110000000
          -3 callgsubr
          hintmask 0101011010000000
          -7 callgsubr
          -778 123 236 vlineto
          endchar
        </CharString>
        <CharString name="l">
          0 92 592 92 -88 -20 hstemhm
          255 123 -38 callgsubr
          endchar
        </CharString>
        <CharString name="lacute">
          1 callgsubr
          186 898 -107 callgsubr
          -102 -898 rmoveto
          -33 callsubr
          endchar
        </CharString>
        <CharString name="lcaron">
          -48 callsubr
          121 119 hintmask 11011000
          479 628 -77 callsubr
          -395 -628 rmoveto
          -53 callsubr
          hintmask 10111000
          -10 -88 rlineto
          hintmask 11011000
          -34 callsubr
          endchar
        </CharString>
        <CharString name="ldot">
          0 92 196 142 254 92 -88 -20 hstemhm
          255 123 183 121.5 hintmask 11101100
          84 hmoveto
          -53 callsubr
          hintmask 11011100
          -10 -88 rlineto
          hintmask 11101100
          -34 callsubr
          473 196 rmoveto
          122 hlineto
          7 142 rlineto
          -121 hlineto
          endchar
        </CharString>
        <CharString name="less">
          -26 707 hstem
          95 112 vstem
          529 594 rmoveto
          -66 87 -368 -302 rlineto
          -103 vlineto
          367 -302 69 87 -324 261 rlineto
          12 vlineto
          endchar
        </CharString>
        <CharString name="less_bar.liga">
          -107 787 -20 hstem
          274 112 421 116 vstem
          274 246 rmoveto
          545 -449 rlineto
          104 1001 hlineto
          -115 -11 rlineto
          -1 hlineto
          -533 -438 rlineto
          112 -57 rmoveto
          12 vlineto
          421 342 rlineto
          -697 vlineto
          endchar
        </CharString>
        <CharString name="less_equal.liga">
          -107 -175 905 hstem
          288 686 vstem
          902 730 rmoveto
          69 -88 -572 -258 rlineto
          -12 vlineto
          575 -262 -66 -87 -620 304 rlineto
          103 vlineto
          620 -605 rmoveto
          -620 304 rlineto
          107 vlineto
          676 -326 rlineto
          endchar
        </CharString>
        <CharString name="less_equal_equal.liga">
          518 160 18 callgsubr
          87 112 vstem
          521 595 rmoveto
          -66 86 -368 -302 rlineto
          -103 vlineto
          368 -302 68 87 -124 99 rlineto
          1389 104 -1516 hlineto
          -73 58 rlineto
          12 vlineto
          86 70 rlineto
          1503 104 -1373 hlineto
          endchar
        </CharString>
        <CharString name="less_exclam_hyphen_x2.liga">
          1143 0 145 hstemhm
          878 159.5 -114.5 83 hintmask 00000000
          hintmask 10100000
          1049 752 rmoveto
          -158 hlineto
          1 -53 31 -378 -50 vvcurveto
          83 hlineto
          2 50 39 378 2 53 rrcurveto
          -594 -71 rmoveto
          66 -87 -262 -211 rlineto
          547 hlineto
          -19 -105 rlineto
          -532 hlineto
          268 15 callgsubr
          1041 4 rmoveto
          1285 hlineto
          -11 -105 rlineto
          -1274 hlineto
          hintmask 11000000
          -248 -133 rmoveto
          -4 -145 rlineto
          159 hlineto
          5 145 rlineto
          endchar
        </CharString>
        <CharString name="less_hyphen.liga">
          -107 -26 707 5 callsubr
          455 681 rmoveto
          65 -87 -259 -211 rlineto
          902 hlineto
          -11 -105 rlineto
          -900 hlineto
          270 -215 -69 -89 -366 303 rlineto
          102 vlineto
          endchar
        </CharString>
        <CharString name="less_hyphen_hyphen.liga">
          518 -26 707 3 callsubr
          455 681 rmoveto
          66 -87 -261 -211 rlineto
          1528 hlineto
          -10 -105 rlineto
          -1524 hlineto
          269 15 callgsubr
          endchar
        </CharString>
        <CharString name="lessequal">
          8 103 hstem
          91.5 -45 callgsubr
          vstem
          219 402 rmoveto
          8 vlineto
          303 174 -49 92 -381 -229 -1 -94 392 -194 40 96 rlineto
          18 -247 rmoveto
          103 -457 -103 vlineto
          endchar
        </CharString>
        <CharString name="lslash">
          1 callgsubr
          84 hmoveto
          455 hlineto
          11 92 rlineto
          -172 302 hlineto
          130 66 -19 80 -111 -56 rlineto
          292 -278 vlineto
          hintmask 10110000
          -10 -88 rlineto
          hintmask 11010000
          165 -8 rlineto
          -259 vlineto
          -137 -69 19 -80 118 60 rlineto
          -240 -171 vlineto
          endchar
        </CharString>
        <CharString name="m">
          19 callgsubr
          60 114 99 87 97 114 hintmask 11001110
          233 462 rmoveto
          27 13 -16 -47 hvcurveto
          -399 87 437 vlineto
          16 17 17 9 21 hhcurveto
          29 13 -16 -48 hvcurveto
          -398 114 440 vlineto
          83 -31 44 -64 -49 -38 -27 -33 -30 vhcurveto
          37 -11 -26 23 -44 hhcurveto
          -45 -39 -26 -34 -30 hvcurveto
          hintmask 10101110
          -4 48 rlineto
          hintmask 10011110
          -105 -6 rlineto
          4 -126 1 -175 -248 vvcurveto
          114 hlineto
          hintmask 11001110
          182 -2 147 -2 104 vhcurveto
          19 20 22 10 21 hhcurveto
          endchar
        </CharString>
        <CharString name="macron">
          -17 callgsubr
        </CharString>
        <CharString name="macron.cap">
          -17 callgsubr
        </CharString>
        <CharString name="minus">
          279 103 hstem
          87 451 vstem
          538 279 rmoveto
          103 -451 -103 vlineto
          endchar
        </CharString>
        <CharString name="multiply">
          562 -20 24 -20 hstemhm
          79 467 hintmask 01100000
          311 254 rmoveto
          158 -160 77 75 -159 162 rlineto
          hintmask 10100000
          155 157 -74 74 -154 -156 rlineto
          hintmask 01100000
          -158 160 -77 -77 158 -161 -154 -156 74 -74 rlineto
          endchar
        </CharString>
        <CharString name="n">
          19 callgsubr
          93 123 202 123 hintmask 11001100
          325 462 -75 callgsubr
          hintmask 10101100
          -7 63 rlineto
          hintmask 10011100
          -62 callgsubr
          hintmask 11001100
          -58 callsubr
          endchar
        </CharString>
        <CharString name="nacute">
          -35 callsubr
          245 -20 -14 callsubr
          hintmask 11001110
          181 688 -107 callgsubr
          144 -226 -68 callsubr
        </CharString>
        <CharString name="ncaron">
          -35 callsubr
          238 -20 -14 callsubr
          hintmask 11001110
          316 629 -99 callgsubr
          213 -323 -68 callsubr
        </CharString>
        <CharString name="nine">
          268.86 84.78 251.36 97 hstem
          73 114 248 115 vstem
          147 78 rmoveto
          51 -102 rlineto
          243 109 109 154 193 vvcurveto
          177 -96 93 -140 -129 -112 -90 -147 -186 195 -68 156 112 vhcurveto
          -25 -98 -75 -75 -177 -72 rrcurveto
          40 400 rmoveto
          81 49 46 67 74 58 -58 -128 vhcurveto
          -22 vlineto
          -131 -82 -117 38 125 vvcurveto
          endchar
        </CharString>
        <CharString name="nine.den">
          -66.6 -68 callgsubr
          -172 -97 callsubr
        </CharString>
        <CharString name="nine.inf">
          -166 -21 186.4 -68 callgsubr
          -106 -97 callsubr
        </CharString>
        <CharString name="nine.num">
          638.4 -68 callgsubr
          533 -97 callsubr
        </CharString>
        <CharString name="nine.small">
          166.4 -68 callgsubr
          61 -97 callsubr
        </CharString>
        <CharString name="nine.sup">
          527.4 -68 callgsubr
          422 -97 callsubr
        </CharString>
        <CharString name="notequal">
          22 -21 159 18 callgsubr
          87 451 vstem
          302 160 rmoveto
          236 104 -199 hlineto
          51 140 rlineto
          148 104 -110 hlineto
          47 130 -93 29 -58 -159 rlineto
          -237 -104 199 hlineto
          -51 -140 rlineto
          -148 -104 111 hlineto
          -48 -131 94 -28 rlineto
          endchar
        </CharString>
        <CharString name="ntilde">
          -35 callsubr
          97 99 -3 100 -14 callsubr
          hintmask 11001011
          397 644 -78 callgsubr
          hintmask 11000111
          -85 callgsubr
          hintmask 11001011
          -22 callsubr
          -72 -182 -75 callgsubr
          hintmask 10101011
          -7 63 rlineto
          hintmask 10011011
          -62 callgsubr
          hintmask 11001011
          -58 callsubr
          endchar
        </CharString>
        <CharString name="numbersign">
          21 -21 179 102 128 102 177 -20 hstem
          169 84.5 116 85 vstem
          353 179 rmoveto
          -18 -179 rlineto
          85 hlineto
          18 179 rlineto
          104 hlineto
          11 102 rlineto
          -105 hlineto
          13 128 rlineto
          103 hlineto
          11 102 rlineto
          -104 hlineto
          18 177 rlineto
          -85 hlineto
          -18 -177 rlineto
          -116 hlineto
          18 177 rlineto
          -85 hlineto
          -17 -177 rlineto
          -103 hlineto
          -10 -102 rlineto
          102 hlineto
          -12 -128 rlineto
          -102 hlineto
          -11 -102 rlineto
          103 hlineto
          -18 -179 rlineto
          84 hlineto
          18 179 rlineto
          139 230 rmoveto
          -13 -128 rlineto
          -116 hlineto
          13 128 rlineto
          endchar
        </CharString>
        <CharString name="o">
          -26 callgsubr
          -41 callsubr
          295 -17 -105 callsubr
        </CharString>
        <CharString name="oacute">
          -26 callgsubr
          216 -20 -41 callsubr
          182 681 -107 callgsubr
          113 -698 -105 callsubr
        </CharString>
        <CharString name="obreve">
          -26 callgsubr
          64 98 -41 callsubr
          314 633 -104 callgsubr
          -19 -650 -105 callsubr
        </CharString>
        <CharString name="ocircumflex">
          -26 callgsubr
          119 -20 33 -20 hstemhm
          61 125 255 124 hintmask 11011100
          303 743 rmoveto
          141 -114 75 72 -204 -67 callsubr
          -7 hlineto
          hintmask 11101100
          -202 -169 rlineto
          hintmask 11011100
          59 -58 rlineto
          130 -647 -105 callsubr
        </CharString>
        <CharString name="odieresis">
          -26 callgsubr
          73 -25 callgsubr
          61 125 -57.5 -72 callgsubr
          -59 124 hintmask 11101100
          128 642 -29 callgsubr
          -81 -815 -105 callsubr
        </CharString>
        <CharString name="oe">
          -9 99 -97 101 155 70 143 99 hstemhm
          34 121 119 103 102 108 hintmask 01111110
          571 -7 rmoveto
          10 101 -167 1 -33 38 -4 113 rlinecurve
          210 6 rlineto
          196 12 -47 113 -105 hhcurveto
          -47 -40 -28 -47 -29 hvcurveto
          49 -24 -37 26 -48 hhcurveto
          -113 -75 -114 -185 hvcurveto
          hintmask 10111110
          -182 65 -89 98 54 43 32 56 29 vhcurveto
          hintmask 01111110
          40 -58 74 -30 134 2 rrcurveto
          hintmask 10111110
          -351 97 rmoveto
          -45 -20 64 133 124 22 51 35 39 23 -68 -128 -122 -19 -54 -35 hvcurveto
          209 371 rmoveto
          36 13 -48 -89 1 hvcurveto
          -26 -1 -42 -2 -35 -2 rrcurveto
          103 3 19 39 31 hhcurveto
          endchar
        </CharString>
        <CharString name="ogonek">
          -56 callsubr
        </CharString>
        <CharString name="ogonek.cap">
          -56 callsubr
        </CharString>
        <CharString name="ograve">
          -26 callgsubr
          208 -20 -41 callsubr
          403 624 -100 callgsubr
          -108 -641 -105 callsubr
        </CharString>
        <CharString name="ohungarumlaut">
          -26 callgsubr
          -41 callsubr
          134 669 -94 callsubr
          -73 -684 -105 callsubr
        </CharString>
        <CharString name="omacron">
          -26 callgsubr
          100 105 -41 callsubr
          505 669 -52 callsubr
          175 -686 -105 callsubr
        </CharString>
        <CharString name="one">
          0 103 411 196 -9 -20 29 -20 hstemhm
          282 119 hintmask 10011000
          96 hmoveto
          461 hlineto
          10 103 rlineto
          -166 607 hlineto
          hintmask 10101000
          -119 -9 rlineto
          -81 vlineto
          hintmask 11001000
          -171 -19 3 -89 168 4 rlineto
          -413 -186 vlineto
          endchar
        </CharString>
        <CharString name="one.den">
          -233 -46 callsubr
          -233 -66 callgsubr
        </CharString>
        <CharString name="one.inf">
          -167 -46 callsubr
          -167 -66 callgsubr
        </CharString>
        <CharString name="one.num">
          472 -46 callsubr
          472 -66 callgsubr
        </CharString>
        <CharString name="one.small">
          0 -46 callsubr
          hmoveto
          -100 callsubr
          endchar
        </CharString>
        <CharString name="one.sup">
          361 -46 callsubr
          361 -66 callgsubr
        </CharString>
        <CharString name="oneeighth">
          -42 callgsubr
          83 -30 callgsubr
          134 95 -87 97 45 94 12 92 -89 98 hintmask 1011111101000000
          152 472 rmoveto
          -100 callsubr
          -78 -175 -64 callgsubr
          -248 -622 rmoveto
          hintmask 1011111101010000
          -71 callsubr
          hintmask 1011111011100000
          -81 callsubr
          vhcurveto
          hintmask 1101111011000000
          -39 callsubr
          hintmask 1011111101000000
          -42 callsubr
          hintmask 1011111011100000
          -91 callgsubr
          hintmask 1011111101010000
          -93 callsubr
        </CharString>
        <CharString name="onehalf">
          -233 83 281 85 83 -30 callgsubr
          284 94 -4 98 hintmask 11111100
          152 472 rmoveto
          -100 callsubr
          -78 -175 -64 callgsubr
          -404 -611 rmoveto
          338 83 -216 hlineto
          hintmask 11111010
          131 86 72 67 79 vvcurveto
          75 -72 60 -239 -1 vhcurveto
          -7 -85 rlineto
          170 -6 50 -23 -46 vvcurveto
          -59 -83 -59 -154 -95 vhcurveto
          endchar
        </CharString>
        <CharString name="onequarter">
          -150 78 371 -30 callgsubr
          284 94 -15.5 89.5 hintmask 11111000
          152 472 rmoveto
          -100 callsubr
          -78 -175 -64 callgsubr
          hintmask 11110100
          -99 -528 -96 callsubr
          endchar
        </CharString>
        <CharString name="ordfeminine">
          119 81 72 75 111.81 63.19 85 88 hstem
          126 102 156.5 98.5 vstem
          398 280 rmoveto
          93 5 rlineto
          -3 55 -5 64 83 vvcurveto
          154 -65 50 -254 4 vhcurveto
          -9 -88 168 -4 50 -15 9 -66 rlinecurve
          -176 4 -80 -65 -82 vvcurveto
          -67 57 -40 79 56 43 22 26 30 vhcurveto
          3 -18 4 -19 -3 vvcurveto
          -104 67 rmoveto
          -41 -25 15 38 43 32 25 123 -12 hvcurveto
          3 -80 rlineto
          -17 -28 -33 -12 -31 hhcurveto
          208 -147 rmoveto
          -380 -81 380 hlineto
          endchar
        </CharString>
        <CharString name="ordmasculine">
          119 81 72 81 263 81 hstem
          108 101 205 102 vstem
          108 475 rmoveto
          -130 78 -73 111 120 99 89 133 128 -79 75 -111 -118 -100 -90 -132 vhcurveto
          206 -122 rmoveto
          -66 -39 43 96 81 35 43 65 68 37 -44 -94 -83 -35 -42 -65 hvcurveto
          -193 -234 rmoveto
          382 81 -382 hlineto
          endchar
        </CharString>
        <CharString name="oslash">
          -17 99 -78 -21 487 99 -20 17 callgsubr
          261 121 hintmask 10101100
          295 -17 rmoveto
          147 -18 callgsubr
          185 hvcurveto
          hintmask 10011100
          81 -20 64 -34 47 vhcurveto
          48 68 rlineto
          hintmask 01101100
          -29 callsubr
          hintmask 10101100
          -69 callgsubr
        </CharString>
        <CharString name="oslashacute">
          -17 99 -78 -21 487 99 -20 -20 256 17 callgsubr
          261 121 hintmask 10101110
          182 681 -107 callgsubr
          113 -698 rmoveto
          147 -18 callgsubr
          185 hvcurveto
          hintmask 10011110
          81 -20 64 -34 47 vhcurveto
          48 68 rlineto
          hintmask 01101110
          -29 callsubr
          hintmask 10101110
          -69 callgsubr
        </CharString>
        <CharString name="otilde">
          -26 callgsubr
          68 99 -3 100 hstemhm
          61 125 255 124 hintmask 11101100
          398 637 -78 callgsubr
          hintmask 11011100
          -85 callgsubr
          hintmask 11101100
          -22 callsubr
          -103 -654 -105 callsubr
        </CharString>
        <CharString name="p">
          4 callsubr
          168 105 375 101 -12 -20 32 -20 hstemhm
          96 122 223 122 hintmask 00000000
          hintmask 10110011
          96 -193 rmoveto
          hintmask 01110011
          122 11 rlineto
          169 vlineto
          -1 10 11 0 10 hhcurveto
          173 141 116 202 160 -85 103 -116 -64 -52 -31 -37 -38 hvcurveto
          hintmask 01101011
          -6 56 rlineto
          hintmask 01100111
          -112 -6 rlineto
          5 -111 1 -157 -285 vvcurveto
          195 95 rmoveto
          -27 -22 5 9 -24 hvcurveto
          hintmask 01110011
          -1 143 -2 103 -1 80 rrcurveto
          22 30 35 13 33 hhcurveto
          75 54 -65 -127 hvcurveto
          hintmask 01100111
          -122 -65 -61 -85 vhcurveto
          endchar
        </CharString>
        <CharString name="paragraph">
          100 98 388 114 hstemhm
          54 112 92 100 -78.5 75.5 84 101 hintmask 00000000
          hintmask 11110100
          258 -129 rmoveto
          100 11 rlineto
          223 vlineto
          -3 26 27 -2 28 hhcurveto
          -203 vlineto
          101 11 rlineto
          792 vlineto
          -319 2 -167 -129 -193 vvcurveto
          -119 72 -92 132 -43 vhcurveto
          181 460 rmoveto
          -388 vlineto
          hintmask 11101100
          -30 1 -28 3 -26 5 rrcurveto
          379 vlineto
          hintmask 11110100
          25 2 28 0 31 -2 rrcurveto
          -273 -188 rmoveto
          hintmask 11101100
          75 33 65 80 31 vhcurveto
          1 -337 rlineto
          hintmask 11110100
          -74 35 -40 59 72 vvcurveto
          endchar
        </CharString>
        <CharString name="parenleft">
          -231 1041 hstem
          121 121 vstem
          533 736 -55 callgsubr
        </CharString>
        <CharString name="parenleft.cap">
          787 -20 hstem
          121 121 vstem
          533 787 -55 callgsubr
        </CharString>
        <CharString name="parenright">
          -231 1042 hstem
          383 122 vstem
          91 -156 -56 callgsubr
        </CharString>
        <CharString name="parenright.cap">
          785 -20 hstem
          383 122 vstem
          91 -105 -56 callgsubr
        </CharString>
        <CharString name="percent">
          5 -21 23 -21 716 -20 22 -20 hstemhm
          52 214 93 214 hintmask 01011100
          52 549 rmoveto
          -90 42 -52 59 63 50 59 94 90 -42 54 -59 -63 -50 -60 -95 vhcurveto
          hintmask 10101100
          4 -516 rmoveto
          77 -49 436 670 -77 48 rlineto
          hintmask 01011100
          81 -563 rmoveto
          90 -42 54 -58 -63 -51 -60 -95 -90 43 -52 58 64 49 59 94 vhcurveto
          endchar
        </CharString>
        <CharString name="period">
          0 155 hstem
          221 169 vstem
          217 hmoveto
          169 hlineto
          8 -8 callgsubr
        </CharString>
        <CharString name="periodcentered">
          258 155 hstem
          228 169 vstem
          227 258 rmoveto
          169 hlineto
          2 -8 callgsubr
        </CharString>
        <CharString name="plus">
          279 103 hstem
          258 110 vstem
          368 279 rmoveto
          186 103 -186 197 -110 -197 -188 -103 188 -198 110 hlineto
          endchar
        </CharString>
        <CharString name="plus_plus.liga">
          -107 81 498 hstem
          142 966 vstem
          330 579 rmoveto
          110 -197 372 197 110 -197 186 -103 -186 -198 -110 198 -372 -198 -110 198 -188 103 188 hlineto
          endchar
        </CharString>
        <CharString name="plusminus">
          54 103 170 104 hstem
          258 110 vstem
          79 54 rmoveto
          466 hlineto
          1 103 rlineto
          -178 170 178 hlineto
          1 104 rlineto
          -179 188 -110 -188 -180 -104 180 -170 -179 hlineto
          endchar
        </CharString>
        <CharString name="q">
          4 callsubr
          167 101 375 106 12 callgsubr
          225 123 hintmask 01111100
          408 44 rmoveto
          hintmask 10111100
          -237 vlineto
          hintmask 01111100
          123 11 rlineto
          719 vlineto
          20 -51 -51 10 -59 hhcurveto
          -162 -147 -120 -201 -160 85 -101 118 59 49 26 33 36 hvcurveto
          -95 42 rmoveto
          -77 -53 63 127 123 58 62 83 28 27 -5 -10 29 hvcurveto
          -326 vlineto
          -21 -29 -32 -13 -34 hhcurveto
          endchar
        </CharString>
        <CharString name="question">
          0 143 hstem
          189 155.5 71.5 132 vstem
          111 754 rmoveto
          -12 -115 rlineto
          263 -19 54 -34 -44 vvcurveto
          -66 -178 -52 -8 -161 vhcurveto
          87 -3 rlineto
          15 142 216 47 125 vvcurveto
          89 -97 75 -340 16 vhcurveto
          76 -754 rmoveto
          156 hlineto
          3 143 rlineto
          -155 hlineto
          endchar
        </CharString>
        <CharString name="questiondown">
          545 143 hstem
          77 132 71.5 155 vstem
          438 688 rmoveto
          -155 hlineto
          -5 -143 rlineto
          155 hlineto
          81 -611 rmoveto
          13 115 rlineto
          -264 19 -54 35 43 vvcurveto
          67 178 51 9 161 vhcurveto
          -88 3 rlineto
          -15 -142 -216 -47 -125 vvcurveto
          -89 97 -74 340 -17 vhcurveto
          endchar
        </CharString>
        <CharString name="quotedbl">
          414 334 hstem
          135 138.5 108.5 138 vstem
          138 414 rmoveto
          85 hlineto
          52 285 -3 49 rlineto
          -140 hlineto
          253 -334 rmoveto
          85 hlineto
          52 285 -4 49 rlineto
          -139 hlineto
          endchar
        </CharString>
        <CharString name="quotedblbase">
          -171 -21 22 -21 hstemhm
          143.75 131.87 114.63 133.7 hintmask 01110000
          102 -173 rmoveto
          hintmask 10110000
          60 -19 94 92 45 144 -40 121 rlinecurve
          -152 -8 rlineto
          hintmask 01110000
          49 -114 -3 -132 -53 -84 rrcurveto
          242 1 rmoveto
          60 -19 97 89 47 144 -36 123 rlinecurve
          -152 -7 45 -114 -4 -133 -57 -83 rlinecurve
          endchar
        </CharString>
        <CharString name="quotedblleft">
          410 357 hstem
          106.45 133.05 114.27 131.48 vstem
          285 748 rmoveto
          -60 19 -96 -90 -47 -144 37 -123 rlinecurve
          150 8 -44 113 4 133 56 84 rlinecurve
          242 hmoveto
          -61 19 -93 -92 -45 -144 41 -121 rlinecurve
          151 8 -49 115 3 132 53 83 rlinecurve
          endchar
        </CharString>
        <CharString name="quotedblright">
          393 357 hstem
          148.25 131.81 115.81 133.51 vstem
          106 412 rmoveto
          61 -19 93 92 46 145 -41 120 rlinecurve
          -151 -8 49 -114 -4 -132 -53 -84 rlinecurve
          244 1 rmoveto
          60 -19 96 89 48 144 -37 123 rlinecurve
          -151 -7 45 -114 -5 -133 -56 -83 rlinecurve
          endchar
        </CharString>
        <CharString name="quoteleft">
          410 357 hstem
          225.87 138.5 vstem
          418 748 rmoveto
          -65 19 -97 -88 -63 -144 51 -125 rlinecurve
          156 8 -56 118 11 130 63 82 rlinecurve
          endchar
        </CharString>
        <CharString name="quoteright">
          394 357 hstem
          273.62 138.92 vstem
          220 414 rmoveto
          65 -20 97 88 63 144 -50 125 rlinecurve
          -157 -8 56 -118 -11 -131 -63 -80 rlinecurve
          endchar
        </CharString>
        <CharString name="quotesinglbase">
          -170 -21 hstem
          266.5 138.04 vstem
          212 -172 rmoveto
          65 -19 97 91 64 143 -52 122 rlinecurve
          -155 -8 55 -113 -9 -133 -65 -83 rlinecurve
          endchar
        </CharString>
        <CharString name="quotesingle">
          409 339 hstem
          261 148.5 vstem
          263 409 rmoveto
          86 hlineto
          62 289 -3 50 rlineto
          -149 hlineto
          endchar
        </CharString>
        <CharString name="r">
          -5 callgsubr
          hstemhm
          215 121 hintmask 11010000
          80 hmoveto
          414 hlineto
          11 92 23 callgsubr
          -2 119 -1 92 -3 84 62 31 77 19 96 7 rrcurveto
          hintmask 10110000
          -5 130 rlineto
          hintmask 11010000
          -40 callsubr
        </CharString>
        <CharString name="racute">
          -5 callgsubr
          234 -20 hstemhm
          215 121 hintmask 11011000
          207 684 -107 callgsubr
          -127 -684 -69 callsubr
        </CharString>
        <CharString name="rcaron">
          -5 callgsubr
          227 -20 hstemhm
          215 121 hintmask 11011000
          341 625 -99 callgsubr
          -57 -781 -69 callsubr
        </CharString>
        <CharString name="registered">
          208 59 176 165.92 86.08 59 hstem
          40 65 111 67 237 65 vstem
          585 489 rmoveto
          163 -116 105 -155 -3 vhcurveto
          -162 -2 -112 -112 -166 vvcurveto
          -164 107 -102 163 155 120 114 167 vhcurveto
          -65 -7 rmoveto
          -136 -88 -79 -121 -121 -85 77 136 134 85 81 123 122 85 -77 -136 vhcurveto
          -206 -39 rmoveto
          55 -90 73 8 -67 98 rlineto
          28 20 21 28 28 vvcurveto
          45 -48 45 -160 -21 vhcurveto
          -248 67 87 vlineto
          endchar
        </CharString>
        <CharString name="registered.alt">
          8 64 205 239.32 99.68 64 hstem
          47 69 97 74 221 69 vstem
          47 338 rmoveto
          -207 103 -123 152 -4 callgsubr
          -150 -111 19 callsubr
          76 100 114 10 callsubr
          -110 -78 98 172 vhcurveto
          203 -64 rmoveto
          36 -114 80 9 -56 140 rlineto
          25 28 17 36 36 vvcurveto
          61 -45 63 -163 -27 vhcurveto
          -342 74 108 vlineto
          endchar
        </CharString>
        <CharString name="ring">
          612 241 hstem
          172 298 vstem
          321 853 -82 callsubr
          endchar
        </CharString>
        <CharString name="ring.cap">
          612 241 hstem
          172 298 vstem
          321 853 -82 callsubr
          endchar
        </CharString>
        <CharString name="s">
          -72 callsubr
          22 callgsubr
          169 128 hintmask 10111000
          503 452 rmoveto
          hintmask 11011000
          -4 106 rlineto
          hintmask 10111000
          -85 callsubr
          endchar
        </CharString>
        <CharString name="sacute">
          -72 callsubr
          218.48001 14 callgsubr
          186 675 -107 callgsubr
          317 -223 rmoveto
          hintmask 11011100
          -4 106 rlineto
          hintmask 10111100
          -85 callsubr
          endchar
        </CharString>
        <CharString name="scaron">
          -72 callsubr
          224.48001 14 callgsubr
          321 616 -99 callgsubr
          386 -320 rmoveto
          hintmask 11011100
          -4 106 rlineto
          hintmask 10111100
          -85 callsubr
          endchar
        </CharString>
        <CharString name="scedilla">
          -6 102.07 -74.07 -21 457.04 99.96 -99.96 102.48 22 callgsubr
          90 110 -31 128 hintmask 00000000
          hintmask 01011100
          202 -162 rmoveto
          8 -94 rlineto
          149 14 75 49 61 vvcurveto
          41 -34 46 -91 46 vhcurveto
          hintmask 01011010
          164 22 58 66 72 139 -297 31 75 vvcurveto
          40 63 24 206 -18 vhcurveto
          hintmask 10101010
          -4 106 rlineto
          hintmask 10011010
          -289 20 -103 -91 -95 -139 296 -20 -79 vvcurveto
          -43 -68 -26 -221 15 vhcurveto
          -4 -106 rlineto
          hintmask 10011100
          47 -2 43 0 38 2 -12 -27 rcurveline
          66 -34 32 -28 -22 vvcurveto
          hintmask 01011100
          -21 -35 -14 -87 -10 vhcurveto
          endchar
        </CharString>
        <CharString name="section">
          -124 102.51 617 102.49 hstemhm
          66 109 -63 126 149 126 -64 110 hintmask 11011000
          513 59 rmoveto
          46 -35 33 -47 27 vhcurveto
          hintmask 11010100
          72 32 56 48 60 132 -321 20 70 vvcurveto
          32 54 48 225 -14 vhcurveto
          -6 105 rlineto
          -295 12 -104 -109 -86 vvcurveto
          -46 35 -33 47 -26 vhcurveto
          hintmask 11101000
          -72 -32 -56 -47 -60 -133 321 -22 -68 vvcurveto
          -33 -57 -48 -223 14 vhcurveto
          -4 -105 rlineto
          hintmask 11011000
          306 -12 104 110 85 vvcurveto
          hintmask 11100100
          -338 240 rmoveto
          29 40 28 54 20 vhcurveto
          88 -35 92 -24 -41 vvcurveto
          -30 -39 -28 -53 -19 vhcurveto
          -89 34 -93 24 42 vvcurveto
          endchar
        </CharString>
        <CharString name="semicolon">
          -170 -21 547 -25 callgsubr
          235 169 -139.5 140.57 hintmask 00000000
          hintmask 11100000
          234 356 rmoveto
          169 hlineto
          2 156 23 callgsubr
          hintmask 11010000
          -26 -683 rmoveto
          65 -20 97 88 66 141 -50 125 rlinecurve
          -159 -7 56 -117 -11 -130 -64 -80 rlinecurve
          endchar
        </CharString>
        <CharString name="seven">
          13 -21 34 -21 574 109 hstemhm
          91 462 hintmask 01110000
          158 5 rmoveto
          hintmask 10110000
          124 -13 67 199 92 201 112 191 rlinecurve
          105 -454 vlineto
          -8 -109 rlineto
          338 hlineto
          3 -6 rlineto
          hintmask 01110000
          -114 -185 -93 -190 -67 -193 rrcurveto
          endchar
        </CharString>
        <CharString name="seven.den">
          121 -3 callsubr
          -231 -86 callgsubr
          endchar
        </CharString>
        <CharString name="seven.inf">
          187 -3 callsubr
          -165 -86 callgsubr
          endchar
        </CharString>
        <CharString name="seven.num">
          826 -3 callsubr
          474 -86 callgsubr
          endchar
        </CharString>
        <CharString name="seven.small">
          13 -21 31 -21 352 84 hstemhm
          145 348 hintmask 01110000
          194 2 rmoveto
          hintmask 10110000
          102 -10 48 124 68 122 81 119 rlinecurve
          81 -340 vlineto
          -8 -84 rlineto
          247 hlineto
          2 -5 rlineto
          hintmask 01110000
          -84 -114 -66 -113 -50 -120 rrcurveto
          endchar
        </CharString>
        <CharString name="seven.sup">
          715 -3 callsubr
          363 -86 callgsubr
          endchar
        </CharString>
        <CharString name="seveneighths">
          -42 callgsubr
          83 79 448 84 -53 callgsubr
          hintmask 1011110101000000
          194 474 -86 callgsubr
          -120 -96 -64 callgsubr
          hintmask 1011111001000000
          -248 -622 rmoveto
          -71 callsubr
          hintmask 1011110110000000
          -81 callsubr
          vhcurveto
          hintmask 1101110101000000
          -39 callsubr
          hintmask 1011111001000000
          -42 callsubr
          hintmask 1011110110000000
          -91 callgsubr
          hintmask 1011111001000000
          -93 callsubr
        </CharString>
        <CharString name="six">
          -14 97 252.13 84.81 hstem
          75 115 248 114 vstem
          311 -14 rmoveto
          129 112 91 146 186 -195 69 -156 -112 hvcurveto
          25 97 75 76 176 71 -51 103 rcurveline
          -242 -110 -109 -154 -193 vvcurveto
          -176 96 -94 140 vhcurveto
          11 97 rmoveto
          -74 -58 58 128 hvcurveto
          22 vlineto
          132 83 116 -38 -125 vvcurveto
          -82 -49 -46 -67 vhcurveto
          endchar
        </CharString>
        <CharString name="six.den">
          -244 -64 callsubr
          -244 -97 callgsubr
        </CharString>
        <CharString name="six.inf">
          -178 -64 callsubr
          -178 -97 callgsubr
        </CharString>
        <CharString name="six.num">
          461 77 139.59 20.41 -20.41 64.53 hstemhm
          132 92 178 91 hintmask 10111000
          311 461 rmoveto
          99 83 63 92 hvcurveto
          hintmask 11011000
          129 -157 35 -108 -82 vhcurveto
          15 66 53 39 140 45 -32 81 rcurveline
          -184 -59 -88 -101 -127 vvcurveto
          hintmask 10111000
          -118 73 -63 106 vhcurveto
          9 77 rmoveto
          -53 -42 35 78 -1 hvcurveto
          93 48 85 -19 -70 vvcurveto
          -46 -35 -26 -47 vhcurveto
          endchar
        </CharString>
        <CharString name="six.small">
          -11 -64 callsubr
          -11 -97 callgsubr
        </CharString>
        <CharString name="six.sup">
          350 -64 callsubr
          350 -97 callgsubr
        </CharString>
        <CharString name="slash">
          -222 1044 hstem
          9 613 vstem
          622 772 rmoveto
          -105 50 -508 -996 106 -48 rlineto
          endchar
        </CharString>
        <CharString name="space">
          endchar
        </CharString>
        <CharString name="sterling">
          0 103 191 91 198 122 hstem
          73 472 vstem
          538 hmoveto
          104 vlineto
          -276 -2 22 192 rlineto
          184 hlineto
          8 91 rlineto
          -182 hlineto
          20 172 27 22 204 4 -7 122 rcurveline
          -273 -16 -66 -85 -26 -219 rrcurveto
          -86 hlineto
          -9 -91 rlineto
          86 hlineto
          -18 -193 rlineto
          -73 -101 hlineto
          endchar
        </CharString>
        <CharString name="t">
          3 callgsubr
          hstem
          191 122 vstem
          521 -8 -74 callgsubr
          endchar
        </CharString>
        <CharString name="tcaron">
          3 callgsubr
          hstem
          191 122 108 119 vstem
          401 660 -77 callsubr
          120 -668 -74 callgsubr
          endchar
        </CharString>
        <CharString name="thorn">
          4 callsubr
          168 8 callgsubr
          222 122 hintmask 00000000
          hintmask 10110111
          94 -193 rmoveto
          hintmask 01110111
          123 11 rlineto
          169 vlineto
          -1 11 11 0 11 hhcurveto
          170 141 117 201 160 -86 103 -115 -58 -48 -25 -33 -37 hvcurveto
          280 vlineto
          hintmask 01111011
          -7 callgsubr
          195 -687 rmoveto
          -27 -21 4 9 -24 hvcurveto
          330 vlineto
          20 29 33 12 31 hhcurveto
          75 54 -65 -127 -122 -65 -61 -85 hvcurveto
          endchar
        </CharString>
        <CharString name="three">
          -14 111 485 106 hstem
          421 118 vstem
          101 97 rmoveto
          8 -111 rlineto
          302 15 128 88 118 vvcurveto
          78 -67 70 -183 33 vhcurveto
          234 194 -8 106 rlineto
          -404 -106 288 hlineto
          -246 -203 rlineto
          -55 vlineto
          198 -24 70 -51 -51 vvcurveto
          -54 -76 -33 -244 -14 vhcurveto
          endchar
        </CharString>
        <CharString name="three.den">
          -246 -31 callgsubr
          -159 -106 callgsubr
          endchar
        </CharString>
        <CharString name="three.inf">
          -180 -31 callgsubr
          -93 -106 callgsubr
          endchar
        </CharString>
        <CharString name="three.num">
          459 87 283 81 hstem
          391 94 vstem
          -82 callgsubr
          endchar
        </CharString>
        <CharString name="three.small">
          -13 -31 callgsubr
          74 -106 callgsubr
          endchar
        </CharString>
        <CharString name="three.sup">
          348 -31 callgsubr
          435 -106 callgsubr
          endchar
        </CharString>
        <CharString name="threeeighths">
          -42 callgsubr
          83 79 81 -13 callsubr
          hstemhm
          134 95 -87 97 151 92 -91 94 -92 98 hintmask 1011111010100000
          -87 callgsubr
          hintmask 1011111100010000
          -248 -622 rmoveto
          -71 callsubr
          hintmask 1011111011000000
          -49 callgsubr
          hintmask 1011111011000000
          -91 callgsubr
          hintmask 1011111100010000
          -93 callsubr
        </CharString>
        <CharString name="threequarters">
          -150 78 371 79 81 -13 callsubr
          hstemhm
          -47 callgsubr
          -61 94 hintmask 00000000
          hintmask 11110100
          -87 callgsubr
          hintmask 11111000
          -99 -528 -96 callsubr
          endchar
        </CharString>
        <CharString name="tilde">
          630 99 -3 100 -39 -20 hstemhm
          83 461 hintmask 10110000
          390 630 -78 callgsubr
          hintmask 01010000
          -85 callgsubr
          hintmask 10110000
          -22 callsubr
          endchar
        </CharString>
        <CharString name="tilde.cap">
          630 99 -3 100 -39 -20 hstemhm
          83 461 hintmask 10110000
          390 630 -78 callgsubr
          hintmask 01010000
          -85 callgsubr
          hintmask 10110000
          -22 callsubr
          endchar
        </CharString>
        <CharString name="trademark">
          568 -20 76 64 hstem
          110 71 111 15 callsubr
          vstem
          181 318 rmoveto
          306 75 64 -227 vlineto
          -3 -64 rlineto
          84 -306 hlineto
          255 250 rmoveto
          54 -185 rlineto
          28 hlineto
          54 185 rlineto
          2 -250 72 370 -79 hlineto
          -1 callgsubr
          -1 250 rlineto
          endchar
        </CharString>
        <CharString name="two">
          0 106 477 114 hstem
          404 121 vstem
          96 hmoveto
          447 106 -311 hlineto
          185 145 108 102 140 vvcurveto
          114 -92 93 -318 -3 vhcurveto
          -10 -114 rlineto
          232 -3 67 -41 -79 vvcurveto
          -102 -113 -100 -207 -161 vhcurveto
          endchar
        </CharString>
        <CharString name="two.den">
          -233 -32 callsubr
          -233 rmoveto
          -95 callgsubr
          endchar
        </CharString>
        <CharString name="two.inf">
          -167 -32 callsubr
          -167 rmoveto
          -95 callgsubr
          endchar
        </CharString>
        <CharString name="two.num">
          472 83 281 85 hstem
          374 98 vstem
          -49 callsubr
          endchar
        </CharString>
        <CharString name="two.small">
          0 -32 callsubr
          hmoveto
          -95 callgsubr
          endchar
        </CharString>
        <CharString name="two.sup">
          361 -32 callsubr
          361 rmoveto
          -95 callgsubr
          endchar
        </CharString>
        <CharString name="u">
          -75 callsubr
          -41 callgsubr
          hintmask 00000000
          hintmask 01000111
          420 60 -88 callsubr
        </CharString>
        <CharString name="uacute">
          -75 callsubr
          246 -20 -41 callgsubr
          hintmask 0010011110000000
          184 678 -107 callgsubr
          hintmask 0100011110000000
          236 -618 -96 callgsubr
        </CharString>
        <CharString name="ubreve">
          -75 callsubr
          94 98 -41 callgsubr
          hintmask 0010011110000000
          317 630 -104 callgsubr
          hintmask 0100011110000000
          103 -570 -96 callgsubr
        </CharString>
        <CharString name="ucircumflex">
          -75 callsubr
          149 -20 33 -20 -41 callgsubr
          hintmask 0010010111000000
          305 740 rmoveto
          141 -114 75 72 -204 -67 callsubr
          -7 hlineto
          hintmask 0010011011000000
          -202 -169 rlineto
          hintmask 0100010111000000
          59 -58 rlineto
          253 -567 rmoveto
          7 -63 rlineto
          hintmask 0010100111000000
          114 7 rlineto
          -7 126 -2 174 248 vvcurveto
          -123 hlineto
          hintmask 1000010111000000
          -90 callgsubr
          hintmask 1001000111000000
          -123 -7 rlineto
          -373 vlineto
          -135 61 -55 97 vhcurveto
          hintmask 0100010111000000
          76 56 35 39 44 hvcurveto
          endchar
        </CharString>
        <CharString name="udieresis">
          -75 callsubr
          103 156 -7 callsubr
          -77.5 -72 callgsubr
          -94 123 hintmask 0000000000000000
          hintmask 0010011011000000
          131 639 -104 callsubr
          hintmask 0100011100100000
          41 -735 rmoveto
          7 -63 rlineto
          hintmask 0010101100100000
          114 7 rlineto
          -7 126 -2 174 248 vvcurveto
          -123 hlineto
          hintmask 1000011100100000
          -90 callgsubr
          hintmask 1001001100100000
          -123 -7 rlineto
          -373 vlineto
          -135 61 -55 97 vhcurveto
          hintmask 0100011100100000
          76 56 35 39 44 hvcurveto
          endchar
        </CharString>
        <CharString name="ugrave">
          -75 callsubr
          -41 callgsubr
          hintmask 00100111
          406 621 -100 callgsubr
          hintmask 01000111
          14 -561 -88 callsubr
        </CharString>
        <CharString name="uhungarumlaut">
          -75 callsubr
          -41 callgsubr
          hintmask 00100111
          137 666 -94 callsubr
          hintmask 01000111
          49 -604 -88 callsubr
        </CharString>
        <CharString name="umacron">
          -75 callsubr
          130 105 -41 callgsubr
          hintmask 0010011110000000
          508 666 -52 callsubr
          hintmask 0100011110000000
          297 -606 -96 callgsubr
        </CharString>
        <CharString name="underscore">
          -155 99 hstem
          42 540 vstem
          582 -155 rmoveto
          99 -540 -99 vlineto
          endchar
        </CharString>
        <CharString name="underscore.alt">
          -155 99 hstem
          -4 633 vstem
          629 -155 rmoveto
          99 -633 -99 vlineto
          endchar
        </CharString>
        <CharString name="uni00A0">
          endchar
        </CharString>
        <CharString name="uni00B5">
          4 callsubr
          168 104 -72 -21 28 -21 22 -21 544 -13 callgsubr
          -41 callgsubr
          hintmask 0000000000000000
          hintmask 1000010011100000
          86 -193 rmoveto
          hintmask 0100010011100000
          120 11 -4 187 rlineto
          hintmask 0110000011100000
          -13 20 24 -6 28 hhcurveto
          63 48 34 40 37 hvcurveto
          hintmask 0101000011100000
          7 -63 rlineto
          hintmask 0100100101100000
          112 7 rlineto
          -7 126 -2 174 248 vvcurveto
          -123 hlineto
          hintmask 0110000011100000
          -179 2 -143 2 -103 vhcurveto
          -23 -34 -37 -14 -42 hhcurveto
          -57 -34 28 86 hvcurveto
          352 vlineto
          hintmask 0100011001100000
          -123 -7 rlineto
          endchar
        </CharString>
        <CharString name="uni0122">
          -43 callgsubr
          hstemhm
          62 129 83.37 -50 callsubr
          23 116 hintmask 11101000
          545 9 -91 callsubr
          hintmask 11111000
          -291 -315 -98 callgsubr
        </CharString>
        <CharString name="uni0123">
          -23 callsubr
          hstemhm
          64 121 68 129.87 27.13 123 hintmask 00000000
          hintmask 11111100
          404 861 -16 callgsubr
          hintmask 11110100
          -273 -945 -99 callsubr
        </CharString>
        <CharString name="uni0136">
          -4 callsubr
          35.37 -50 callsubr
          hintmask 00111110
          277 296 rmoveto
          hintmask 10011110
          178 -304 rlineto
          hintmask 00111110
          -28 callsubr
          hintmask 01011110
          -688 127 296 vlineto
          15 -600 -98 callgsubr
        </CharString>
        <CharString name="uni0137">
          -36 callsubr
          45.37 -50 callsubr
          hintmask 0011010111000000
          293 238 rmoveto
          hintmask 1001010111000000
          165 -246 rlineto
          hintmask 0011100111000000
          2 callgsubr
          hintmask 0011010111000000
          -3 callgsubr
          hintmask 0101011011000000
          -7 callgsubr
          -778 123 236 vlineto
          25 -540 -98 callgsubr
        </CharString>
        <CharString name="uni013B">
          0 106 582 -20 hstemhm
          122 128 28.37 -50 callsubr
          hintmask 11100000
          -5 callsubr
          hintmask 11110000
          136 -984 -98 callgsubr
        </CharString>
        <CharString name="uni013C">
          -48 callsubr
          -118.63 -50 callsubr
          -38 callgsubr
          hintmask 11001000
          155 -388 -98 callgsubr
        </CharString>
        <CharString name="uni0145">
          -30 callsubr
          hstem
          84 -37 callgsubr
          56.87 -50 callsubr
          40.5 -37 callgsubr
          vstem
          202 460 -87 callsubr
          39 -756 -98 callgsubr
        </CharString>
        <CharString name="uni0146">
          19 callgsubr
          93 123 55.37 -50 callsubr
          16 123 hintmask 11001010
          325 462 -75 callgsubr
          hintmask 10101010
          -7 63 rlineto
          hintmask 10011010
          -62 callgsubr
          hintmask 11001010
          -58 callsubr
          hintmask 11001110
          -74 -758 -98 callgsubr
        </CharString>
        <CharString name="uni0156">
          -77 callgsubr
          56.37 -50 callsubr
          10 125 hintmask 0011101010000000
          332 240 rmoveto
          hintmask 1001101010000000
          126 -250 rlineto
          hintmask 0011011010000000
          136 17 -162 297 rlineto
          64 47 48 60 87 vvcurveto
          142 -107 91 -340 -44 vhcurveto
          hintmask 0101101010000000
          -687 125 237 vlineto
          89 vmoveto
          265 vlineto
          135 18 62 -48 -91 vvcurveto
          -61 -30 -48 -47 -32 vhcurveto
          hintmask 0011101110000000
          -84 -635 -98 callgsubr
        </CharString>
        <CharString name="uni0157">
          -5 callgsubr
          hstemhm
          215 121 -100.63 -50 callsubr
          hintmask 11010000
          80 hmoveto
          414 hlineto
          11 92 23 callgsubr
          -2 119 -1 92 -3 84 62 31 77 19 96 7 rrcurveto
          hintmask 10110000
          -5 130 rlineto
          hintmask 11010000
          -78 callsubr
          hintmask 11001000
          135 -388 -98 callgsubr
        </CharString>
        <CharString name="uni0162">
          21 -21 582 106 hstemhm
          249 128 -126.63 -50 callsubr
          hintmask 11100000
          377 hmoveto
          -35 callgsubr
          -19 -296 rmoveto
          hintmask 11010000
          62 -19 63 64 30 96 -4 83 rlinecurve
          hintmask 11100000
          -147 -7 21 -66 3 -78 -28 -73 rlinecurve
          endchar
        </CharString>
        <CharString name="uni0163">
          3 callgsubr
          hstemhm
          191 122 -17.63 -50 callsubr
          hintmask 11110000
          521 -8 -74 callgsubr
          hintmask 11101000
          -246 -297 -98 callgsubr
        </CharString>
        <CharString name="uni0218">
          -8 109.94 481.92 110.14 hstemhm
          93 132 22.37 -50 callsubr
          37 131 hintmask 11101000
          96 106 -90 callsubr
          hintmask 11111000
          131 -413 -98 callgsubr
        </CharString>
        <CharString name="uni0219">
          -72 callsubr
          22 callgsubr
          14.37 -50 callsubr
          24 128 hintmask 10110100
          503 452 rmoveto
          hintmask 11010100
          -4 106 rlineto
          hintmask 10110100
          -85 callsubr
          hintmask 10111100
          -275 -758 -98 callgsubr
        </CharString>
        <CharString name="uni0259">
          -14 100 146.5 72 158.5 102 hstem
          72.91 120.09 240 121 vstem
          285 -14 rmoveto
          145 124 130 170 180 -93 103 -357 -4 hvcurveto
          -12 -102 244 -5 83 -37 13 -112 rlinecurve
          -356 -9 rlineto
          -192 -20 75 -122 154 hhcurveto
          23 100 rmoveto
          -78 -34 53 90 -3 hvcurveto
          240 7 rlineto
          -103 -6 -44 -47 -75 hhcurveto
          endchar
        </CharString>
        <CharString name="uni0326">
          -1357 -315 243 hstem
          -374.63 -50 callsubr
          vstem
          -395 -296 -98 callgsubr
        </CharString>
        <CharString name="uni0326.cap">
          -1357 -315 243 hstem
          -374.63 -50 callsubr
          vstem
          -395 -296 -98 callgsubr
        </CharString>
        <CharString name="uni0326.rot">
          -1357 631 242 hstem
          -386 129.87 vstem
          -235 854 -16 callgsubr
          endchar
        </CharString>
        <CharString name="uni20A6">
          21 -21 171 80 155 97 -78 80 183 -20 hstemhm
          108 98.5 228 93.5 hintmask 11011110
          350 171 rmoveto
          79 -171 rlineto
          99 171 69 98 -69 hlineto
          hintmask 11101110
          137 70 97 -70 185 -96 vlineto
          hintmask 11011110
          1 -183 rlineto
          -139 hlineto
          -83 183 rlineto
          -103 hlineto
          hintmask 11101110
          -185 -71 -97 71 -137 -71 -98 71 -171 100 vlineto
          -1 171 rlineto
          80 vmoveto
          -1 221 rlineto
          6 hlineto
          102 -221 rlineto
          121 -43 rmoveto
          -6 hlineto
          hintmask 11011110
          -99 217 rlineto
          104 hlineto
          endchar
        </CharString>
        <CharString name="uni20A8">
          -9 98 -73 -21 26 -21 30 -21 552 -20 145 -20 25.29 -20 hstemhm
          70 92.5 212.5 99 23 102 hintmask 0001101101000000
          199 239 rmoveto
          hintmask 0100101101000000
          60 -244 rlineto
          hintmask 0001110101000000
          99 14 -80 290 rlineto
          40 49 29 67 78 vvcurveto
          135 -82 86 -195 -28 vhcurveto
          hintmask 0010101111000000
          -686 95 vlineto
          -5 237 rlineto
          428 227 rmoveto
          -3 97 rlineto
          -147 12 -63 -79 -80 vvcurveto
          hintmask 1000101111000000
          -118 122 -72 -79 vvcurveto
          hintmask 1000101101000000
          -37 -28 -25 -88 6 vhcurveto
          5 -98 rlineto
          162 -9 51 82 79 117 -125 82 73 vvcurveto
          hintmask 0010101111000000
          34 24 23 90 -8 vhcurveto
          endchar
        </CharString>
        <CharString name="uni20B1">
          21 -21 389 99 -91 87 114.66 100.38 -12.04001 -20 hstemhm
          111 113 hintmask 00000000
          hintmask 11001100
          529 389 rmoveto
          73 99 -65 hlineto
          -14 164 -144 79 -268 -44 rrcurveto
          -199 -75 -99 75 -389 113 186 vlineto
          158 17 116 62 31 124 rrcurveto
          hintmask 10110100
          -106 95 rmoveto
          -199 112 hlineto
          115 14 67 -42 17 -84 rrcurveto
          -199 -191 rmoveto
          104 199 vlineto
          -16 -88 -70 -27 -113 11 rrcurveto
          endchar
        </CharString>
        <CharString name="uni20B9">
          384 85 116 103 hstem
          89 458 vstem
          454 -19 rmoveto
          92 68 -147 106 -76 54 -81 27 rlinecurve
          112 27 70 56 23 65 rrcurveto
          92 85 -88 hlineto
          -10 48 -31 41 -51 27 rrcurveto
          181 hlineto
          7 103 rlineto
          -444 hlineto
          -8 -101 152 -15 67 -44 20 -59 rlinecurve
          -236 -85 236 hlineto
          -20 -58 -64 -40 -142 -9 -19 -89 rcurveline
          139 -38 52 -37 174 -132 rrcurveto
          endchar
        </CharString>
        <CharString name="uni20BD">
          0 208 -86 86 79 90 -86 87 217 101.22 -9.22 -20 hstemhm
          134 119 201 118 hintmask 01101011
          253 122 rmoveto
          213 hlineto
          9 86 rlineto
          -222 hlineto
          hintmask 01010111
          83 vlineto
          204 13 115 63 138 vvcurveto
          156 -151 60 -287 -34 vhcurveto
          hintmask 01101011
          -310 -81 -90 81 -75 -81 -90 81 vlineto
          hintmask 10011011
          -122 119 vlineto
          201 491 rmoveto
          -87 -58 -24 -143 -2 vhcurveto
          217 vlineto
          133 10 68 -35 -79 vvcurveto
          endchar
        </CharString>
        <CharString name="uni2116">
          0 182 -85 85 506 -20 27 -20 hstemhm
          38 94.5 89.5 95 29 255 -246 235 hintmask 00000000
          hintmask 01011110
          463 227 rmoveto
          81 57 93 155 148 -45 72 -72 -81 -57 -94 -154 -148 46 -72 71 hvcurveto
          -332 189 rmoveto
          hintmask 10101100
          103 -416 rlineto
          83 688 -99 hlineto
          8 -375 rlineto
          -2 hlineto
          -99 375 rlineto
          -87 -688 99 hlineto
          hintmask 01011110
          -9 416 rlineto
          hintmask 01011101
          227 -319 rmoveto
          235 85 -235 hlineto
          endchar
        </CharString>
        <CharString name="uni2117">
          8 64 544 64 hstem
          47 69 107 74 211 69 vstem
          47 338 rmoveto
          -207 101 -123 154 -4 callgsubr
          -152 -109 19 callsubr
          74 100 116 10 callsubr
          -112 -76 98 172 vhcurveto
          107 -174 rmoveto
          74 89 hlineto
          79 16 56 49 73 vvcurveto
          91 -68 42 -141 -19 vhcurveto
          endchar
        </CharString>
        <CharString name="uni2120">
          316 68 184 -20 20 120 -64 64 -64 67 hstemhm
          43 73 57 74 45 15 callsubr
          hintmask 1100111110000000
          43 384 rmoveto
          -68 vlineto
          147 -4 57 59 56 84 -131 31 48 vvcurveto
          26 31 12 84 -4 vhcurveto
          -3 67 rlineto
          -136 7 -49 -65 -50 -82 130 -30 -47 vvcurveto
          -27 -37 -19 -93 6 vhcurveto
          322 184 rmoveto
          54 -185 rlineto
          28 hlineto
          hintmask 1010011110000000
          54 185 rlineto
          2 -250 72 hlineto
          hintmask 1101011110000000
          370 -79 vlineto
          -1 callgsubr
          hintmask 1100111110000000
          -1 250 rlineto
          endchar
        </CharString>
        <CharString name="uni2126">
          0 98 494 112 hstem
          79 118 230 120 vstem
          268 hmoveto
          3 7 rlineto
          -50 159 -24 130 97 vvcurveto
          128 40 71 76 74 40 -72 -131 -96 -22 -130 -50 -156 vhcurveto
          2 -7 rlineto
          212 98 -93 hlineto
          48 119 23 107 93 vvcurveto
          170 1 -81 117 -149 hhcurveto
          -153 -86 -118 -172 -92 23 -107 46 -117 hvcurveto
          -91 -98 hlineto
          endchar
        </CharString>
        <CharString name="uni2153">
          -246 -13 callsubr
          94 -30 callgsubr
          284 94 13 94 hintmask 11111100
          152 472 rmoveto
          -100 callsubr
          -78 -175 -64 callgsubr
          hintmask 11111110
          -400 -537 -106 callgsubr
          endchar
        </CharString>
        <CharString name="uni2154">
          -246 -13 callsubr
          94 79 94 83 281 85 hstemhm
          374 98 -81 94 hintmask 11111100
          -49 callsubr
          -63 -170 -64 callgsubr
          hintmask 11111010
          -400 -537 -106 callgsubr
          endchar
        </CharString>
        <CharString name="uni2155">
          -246 88 281 82 94 -30 callgsubr
          171.5 84 28.5 94 14 92 hintmask 01111010
          152 472 rmoveto
          -100 callsubr
          -78 -175 -64 callgsubr
          hintmask 11111111
          -67 -466 -106 callsubr
          endchar
        </CharString>
        <CharString name="uni2156">
          -14 callgsubr
          94 83 281 85 11 callsubr
          118.5 98 -80 92 hintmask 01111110
          -49 callsubr
          -63 -170 -64 callgsubr
          hintmask 11111101
          -67 -466 -106 callsubr
          endchar
        </CharString>
        <CharString name="uni2157">
          -14 callgsubr
          81 87 283 81 -65 callgsubr
          -87 callgsubr
          -67 -466 -106 callsubr
          endchar
        </CharString>
        <CharString name="uni2158">
          -14 callgsubr
          177 78 143 -20 11 callsubr
          107 89.5 -60 92 hintmask 11111110
          452 555 -96 callsubr
          -379 -94 -64 callgsubr
          hintmask 11111101
          -67 -466 -106 callsubr
          endchar
        </CharString>
        <CharString name="uni2159">
          9 callsubr
          261.88 -30 callgsubr
          132 92 60 94 24 91 hintmask 11111110
          152 472 rmoveto
          -100 callsubr
          -78 -175 -64 callgsubr
          -240 -622 rmoveto
          hintmask 11111111
          99 83 63 92 129 -157 35 -108 -82 hvcurveto
          15 66 53 39 140 45 -32 81 rcurveline
          -184 -59 -88 -101 -127 vvcurveto
          hintmask 11111110
          -118 73 -63 106 vhcurveto
          hintmask 11111111
          9 77 rmoveto
          -53 -42 35 78 -1 hvcurveto
          93 48 85 -19 -70 vvcurveto
          -46 -35 -26 -47 vhcurveto
          endchar
        </CharString>
        <CharString name="uni215A">
          9 callsubr
          261.88 79 81 -18 callsubr
          hstemhm
          132 92 -52.5 84 136.5 92 -82 91 hintmask 0000000000000000
          hintmask 1111101100000000
          -66 callsubr
          hintmask 1111110010000000
          -240 -622 -97 callgsubr
        </CharString>
        <CharString name="uniE10B">
          -100 75 5 10 -6 10 -4 11 -10 10 -9 7 0 12 -11 11 -7 15 -15 26 -25 26 -15 8 -8 15 -12 12 0 14 -9 10 -10 19 -9 11 2 8 -7 32 71.5 22.5 514 -20 hstemhm
          87 64 10 16 -3 8 5 40 -35 12 -1 12 14 10 -2 10 -10 42 -31 9 -1 7 3 12 -6 11 9 40 -29 13 -9 10 0 11.5 -3.5 11 -2 12 -5 16 18 11 10 8 11 21 vstemhm
          442 95 -82 12 hintmask 000000000000000000000000000000000000000000000000
          hintmask 100000000000000000011110000000100000001000000100
          537 -100 rmoveto
          800 -450 -800 vlineto
          251 273 rmoveto
          -22 19 13 -9 15 hhcurveto
          15 9 9 13 8 hvcurveto
          5 -1 rlineto
          -44 -1 -27 -27 -32 hhcurveto
          -22 -17 8 26 -25 hvcurveto
          -23 -21 -25 -11 -32 hhcurveto
          -45 -36 30 40 31 21 24 40 13 hvcurveto
          -16 17 -7 13 22 vvcurveto
          32 31 32 51 46 25 -30 -26 -10 -2 -8 -5 -7 vhcurveto
          20 15 -8 -20 2 hvcurveto
          18 12 14 10 19 hhcurveto
          21 16 -15 -24 -23 -16 -17 -21 -14 -12 7 12 -6 hvcurveto
          -12 -7 -12 -10 -11 -15 rrcurveto
          -101 123 rmoveto
          -17 11 -11 17 -16 vhcurveto
          9 13 5 12 12 vvcurveto
          18 -9 11 -13 -12 -8 -9 -13 vhcurveto
          49 -64 rmoveto
          12 -12 9 -12 9 -11 15 25 3 18 -17 17 -7 -7 -10 -9 -14 -9 rrcurveto
          -39 -93 rmoveto
          12 9 3 6 8 hvcurveto
          -21 27 -21 22 -14 13 rrcurveto
          -8 -8 -4 -11 -11 vvcurveto
          -23 17 -18 22 vhcurveto
          hintmask 000000000100000000000000000000000000100000000000
          69 -109 rmoveto
          hintmask 000000000000000000100000000000000000100000000000
          39 -5 5 vlineto
          hintmask 000000000000000000010000000000000000000100000000
          14 hlineto
          hintmask 000000000000000000100000000000000000000100000000
          -20 vlineto
          4 1 4 3 4 hhcurveto
          hintmask 000000000100000000000000000000000000000010000000
          7 0 5 -6 0 -9 0 -7 -3 -9 0 flex1
          -6 -3 2 4 -2 hvcurveto
          hintmask 000000000100000000000000000000000000100000000000
          -3 -6 rlineto
          hintmask 000000000010000000000010000000000000000000000000
          -175 1 rmoveto
          5 6 vlineto
          hintmask 000000000000000000100010000000000000000000000000
          31 -6 5 vlineto
          hintmask 000000000000000000010000001000000000000000000000
          38 hlineto
          hintmask 000000000000000001000000001000000000000000000000
          -15 -5 vlineto
          8 -2 -1 2 -6 hhcurveto
          -8 hlineto
          hintmask 000000000000000000100001000000000000000000000000
          -14 3 vlineto
          4 0 1 5 1 hvcurveto
          5 hlineto
          hintmask 000000000000000100000000100000000000000000000000
          -17 -5 vlineto
          5 -1 0 1 -4 hhcurveto
          -3 hlineto
          hintmask 000000000000000100000001000000000000000000000000
          -12 7 -5 vlineto
          hintmask 000000000000000000010000000000010000000000000000
          89 36 rmoveto
          9 1 rlineto
          -8 10 -5 -10 vlineto
          hintmask 000000000000000010000000000000000100000000000000
          -15 vlineto
          -3 1 -1 2 2 1 1 4 1 vhcurveto
          4 -1 rlineto
          -2 -7 -3 -3 -6 -6 -3 4 -12 callsubr
          hintmask 000000000000000001000000000000010000000000000000
          15 -5 5 5 vlineto
          hintmask 000000000000000100000000100000000000000000000000
          -75 -14 -24 callsubr
          hintmask 000000000010000000000010000000000000000000000000
          34 -15 rmoveto
          5 4 vlineto
          hintmask 000000000000000001000010000000000000000000000000
          19 -4 5 vlineto
          hintmask 000000000000000000010000000010000000000000000000
          13 -6 hlineto
          4 2 3 3 5 hhcurveto
          7 2 -5 -6 hvcurveto
          hintmask 000000000000000100000000000000010000000000000000
          -14 5 -5 vlineto
          hintmask 000000000010000000000000000010000000000000000000
          -17 5 3 hlineto
          hintmask 000000000000000001000000000010000000000000000000
          13 vlineto
          3 -1 3 -3 -3 -3 -3 -5 vhcurveto
          -11 3 -5 vlineto
          hintmask 000000000010000000000000000000000100000000000000
          46 hmoveto
          10 5 vlineto
          -4 3 3 -3 3 hhcurveto
          3 1 2 1 hvcurveto
          hintmask 000000000000000000100000000000000100000000000000
          7 -18 -4 12 vvcurveto
          4 4 5 7 3 3 -1 -3 2 vhcurveto
          1 4 rlineto
          5 -10 -5 hlineto
          4 -3 -2 1 -3 hhcurveto
          -2 -2 -1 -2 hvcurveto
          hintmask 000000000010000000000000000000000000100000000000
          -5 18 2 -11 vvcurveto
          -5 -3 -4 -7 -5 -3 2 2 -2 vhcurveto
          hintmask 000000000010000000000000000000000100000000000000
          -1 -3 rlineto
          hintmask 100000000000000000010000000000000000000010000000
          72 -7 rmoveto
          3 3 2 4 hvcurveto
          -3 7 -9 18 0 vvcurveto
          -3 5 18 -5 -4 hlineto
          7 -15 6 15 rlineto
          -4 5 13 -5 -4 hlineto
          hintmask 000000001000000000000000000000000000000010000000
          -10 -24 rlineto
          -7 -3 -4 -5 -6 hhcurveto
          -6 -3 3 4 3 2 2 3 hvcurveto
          hintmask 100000000000000000010000000000000000000010000000
          5 1 -5 -2 -2 hvcurveto
          hintmask 000000000000000100000010000000000000000000000000
          -151 22 rmoveto
          -48 callgsubr
          hintmask 100000000000001000000000000000001000000100000000
          132 -1 rmoveto
          0 6 -2 4 -3 -5 -1 -5 -12 callsubr
          0 -6 1 -4 5 3 2 4 -12 callsubr
          -77 -70 rmoveto
          5 4 vlineto
          hintmask 000001000000000000000000000000001000000000000000
          19 -5 5 5 1 vlineto
          hintmask 000000000000010000000000000000001000000000000000
          10 7 4 6 4 2 -1 -1 2 vhcurveto
          8 2 rlineto
          hintmask 010000000000000000000000000000000000100000000000
          -39 4 -5 vlineto
          hintmask 100000000000000000000000000000000010000000000000
          -17 5 4 hlineto
          hintmask 000001000000000000000000000000000010000000000000
          19 -11 vlineto
          hintmask 010000000000000000000000000000000010000000000000
          -19 4 -5 vlineto
          hintmask 100000000000000000000000000000000000000000010000
          128 20 rmoveto
          hintmask 000100000000000000000000000000000000000000010000
          15 9 8 11 vhcurveto
          hintmask 000100000000000000000000000000000000000000001000
          5 4 -2 -3 3 hvcurveto
          4 6 vlineto
          hintmask 000100000000000000000000000000000000000000000100
          -16 -6 vlineto
          hintmask 000000100000000000000000000000000000000000001000
          9 -3 -2 3 -6 hhcurveto
          -6 -4 -5 -12 hvcurveto
          hintmask 010000000000000000000000000000000000000000001000
          -11 4 -6 8 vhcurveto
          hintmask 000010000000000000000000000000000000000000000100
          6 3 6 6 1 hvcurveto
          6 hlineto
          hintmask 100000000000000000000000000000000000000000000100
          -10 -1 -6 -7 -11 hhcurveto
          hintmask 100000000000000000000000000000000000000000010000
          -13 -8 7 14 hvcurveto
          hintmask 100000000000000000000010000000000000000000000000
          -259 -20 rmoveto
          5 6 vlineto
          hintmask 000000100000000000000010000000000000000000000000
          31 -6 5 vlineto
          hintmask 000000000000100000000001000000000000000000000000
          21 -5 -5 hlineto
          hintmask 000000100000000000000001000000000000000000000000
          -12 16 12 -5 5 vlineto
          hintmask 000000000000100000000000000100000000000000000000
          21 -5 -6 hlineto
          hintmask 010000000000000000000000000100000000000000000000
          -31 6 -5 vlineto
          hintmask 100000000000000000000001000000000000000000000000
          -21 5 5 hlineto
          hintmask 001000000000000000000001000000000000000000000000
          14 -16 vlineto
          hintmask 010000000000000000000001000000000000000000000000
          -14 5 -5 vlineto
          hintmask 000000000100000000000000000000000010000000000000
          106 33 rmoveto
          -4 11 4 vlineto
          -3 -2 2 2 2 1 1 0 hvcurveto
          0 -1 1 -2 -2 -2 -2 -6 vhcurveto
          hintmask 000000010000000000000000000000000000000000100100
          114 -8 rmoveto
          14 -6 -4 hlineto
          -2 -4 -2 -3 -3 -3 rrcurveto
          2 -2 2 -2 1 1 1 1 1 hflex1
          3 -1 rlineto
          -5 -1 -2 -4 -6 hhcurveto
          hintmask 100000000000000000000000000000000000000001000000
          -4 0 -2 2 -3 3 -3 -3 -4 -2 -6 flex1
          -7 -5 4 6 6 4 3 6 2 hvcurveto
          -3 3 -2 3 4 vvcurveto
          hintmask 000000000001000000000000000000000000000000100000
          5 4 6 9 6 4 -4 -5 -5 -3 -2 -5 -3 vhcurveto
          9 -10 2 2 2 3 1 2 rlinecurve
          -5 hlineto
          -11 5 rmoveto
          2 1 2 3 3 vvcurveto
          3 -2 2 -3 -2 -2 -1 -3 -2 2 -3 3 -3 vhcurveto
          hintmask 010000000000000000000010000001000000000000000000
          -182 -9 -24 callsubr
          hintmask 010000000000000000000000000000001000000000000000
          63 -2 rmoveto
          hintmask 010000000000000000000000000001000000000000000000
          2 callsubr
          hintmask 100000000000000000000000000000001000000000000000
          -6 -1 -4 -5 -8 hhcurveto
          hintmask 100000000000000000000000010000000000000000000000
          -10 -6 6 9 hvcurveto
          hintmask 000000000010000000000000010000000000000000000000
          10 7 6 8 vhcurveto
          hintmask 010000000000000000000000000000001000000000000000
          11 4 -7 -10 -1 hvcurveto
          hintmask 010000000000000000000000000000000000010000000000
          70 hmoveto
          2 callsubr
          hintmask 100000000000000000000000000000000000010000000000
          -6 -1 -4 -5 -8 hhcurveto
          -10 -6 6 9 hvcurveto
          hintmask 000000000010000000000000000000000000010000000000
          10 7 6 8 vhcurveto
          hintmask 010000000000000000000000000000000000010000000000
          11 4 -7 -10 -1 hvcurveto
          hintmask 100000000000000000000000000000000001000000000000
          2 -13 rmoveto
          5 4 vlineto
          hintmask 000001000000000000000000000000000001000000000000
          19 -4 5 vlineto
          hintmask 000000000100000000000000000000000000000001000000
          13 -6 hlineto
          5 2 3 2 4 hhcurveto
          4 2 -2 -4 -3 -2 -2 -3 -2 -3 1 3 hvcurveto
          1 vlineto
          -1 -3 -3 -4 -1 hvcurveto
          hintmask 010000000000000000000000000000000000000001001000
          -12 6 -5 vlineto
          98 15 rmoveto
          hintmask 010000000000000000000000000000000000000000000100
          0 9 7 6 9 9 7 -6 -12 callsubr
          hintmask 010000000000000000000000000000000000000001001000
          0 -9 -7 -7 -9 -9 -7 6 -12 callsubr
          hintmask 010000000000000000000000000100000000000000000000
          -230 hmoveto
          -48 callgsubr
          hintmask 000001000000000000000000000001000000010000000000
          22 2 rmoveto
          9 callgsubr
          70 hmoveto
          9 callgsubr
          hintmask 010000000000000000000000000000000000000000000010
          160 -2 rmoveto
          -48 callgsubr
          hintmask 100000000000000000000000000000000000000000100100
          -88 -8 rmoveto
          -10 11 rlineto
          -2 -2 -1 -2 -3 vvcurveto
          -4 3 -3 4 2 2 1 2 2 vhcurveto
          111 -2 rmoveto
          0 -3 -2 -3 -4 -4 -2 3 -12 callsubr
          0 3 2 3 4 4 2 -3 -12 callsubr
          endchar
        </CharString>
        <CharString name="uniE10C">
          -24 788 -785 161 hstemhm
          69 515 hintmask 10100000
          584 726 rmoveto
          -125 38 rlineto
          hintmask 01100000
          -65 -179 -57 -212 -45 -233 rrcurveto
          -6 hlineto
          -111 270 -106 -46 171 -388 107 6 rlineto
          hintmask 10100000
          65 270 78 247 94 227 rrcurveto
          endchar
        </CharString>
        <CharString name="uniE10D">
          4 -21 27 -21 hstemhm
          90 478 hintmask 01100000
          283 201 rmoveto
          100 -212 118 26 -149 287 216 422 -120 43 -159 -371 -85 182 -114 -41 133 -250 -131 -277 rlineto
          hintmask 10100000
          80 -27 rlineto
          endchar
        </CharString>
        <CharString name="uogonek">
          -245 97 134 104 -65 -21 545 -13 callgsubr
          -7 callsubr
          81 116 3 123 hintmask 0000000000000000
          hintmask 1010011100000000
          517 -245 rmoveto
          11 97 rlineto
          -89 7 -33 17 25 vvcurveto
          25 31 32 104 46 vhcurveto
          hintmask 1100101010000000
          -7 126 -2 174 248 vvcurveto
          -123 hlineto
          -166 1 -135 3 -99 vhcurveto
          -38 -35 -36 -24 -43 hhcurveto
          -56 -34 31 99 hvcurveto
          hintmask 1010011010000000
          336 vlineto
          hintmask 1101001010000000
          -123 -7 rlineto
          -373 vlineto
          -135 60 -55 96 70 61 45 52 45 vhcurveto
          8 -73 rlineto
          hintmask 1010011100000000
          -96 -52 -40 -45 -45 vvcurveto
          -59 62 -46 165 -8 vhcurveto
          endchar
        </CharString>
        <CharString name="uring">
          -75 callsubr
          80 241 -41 callgsubr
          hintmask 0010011110000000
          314 857 -82 callsubr
          hintmask 0100011110000000
          106 -797 -96 callgsubr
        </CharString>
        <CharString name="v">
          -4 124 432 -20 25 -20 hstemhm
          45 537 hintmask 10110000
          319 120 rmoveto
          -8 hlineto
          -52 145 -47 148 -43 144 -124 -9 rcurveline
          57 -182 66 -187 69 -183 rrcurveto
          150 hlineto
          hintmask 11010000
          69 183 69 190 57 183 rrcurveto
          -124 hlineto
          hintmask 10110000
          -42 -142 -46 -147 -51 -143 rrcurveto
          endchar
        </CharString>
        <CharString name="w">
          -34 callgsubr
          22 callsubr
          253 115 hintmask 01111000
          309 276 -63 callgsubr
          hintmask 10111000
          -98 callsubr
        </CharString>
        <CharString name="wacute">
          -34 callgsubr
          246 14 callsubr
          181 674 -107 callgsubr
          128 -398 -63 callgsubr
          hintmask 10111100
          -98 callsubr
        </CharString>
        <CharString name="wcircumflex">
          -34 callgsubr
          162 14 callsubr
          303 736 -92 callgsubr
          144 -347 -63 callgsubr
          hintmask 10111100
          -98 callsubr
        </CharString>
        <CharString name="wdieresis">
          -34 callgsubr
          103 156 22 callsubr
          -67.5 -72 callgsubr
          -51 115 hintmask 01110110
          128 635 -104 callsubr
          -67 -515 rmoveto
          90 -276 rlineto
          hintmask 01110101
          111 hlineto
          17 120 26 223 11 209 rrcurveto
          -115 hlineto
          hintmask 10111001
          -98 callsubr
        </CharString>
        <CharString name="wgrave">
          -34 callgsubr
          22 callsubr
          253 115 hintmask 01111000
          403 617 -100 callgsubr
          -94 -341 -63 callgsubr
          hintmask 10111000
          -98 callsubr
        </CharString>
        <CharString name="x">
          19 -21 23 -21 24 -21 549 6 callsubr
          hstemhm
          43 539 hintmask 00101100
          306 204 rmoveto
          hintmask 10001100
          137 -206 rlineto
          hintmask 00110100
          139 5 -189 273 189 276 rlineto
          -131 hlineto
          -132 -205 rlineto
          hintmask 01001100
          -139 208 -137 -6 189 -274 -189 -275 rlineto
          130 hlineto
          endchar
        </CharString>
        <CharString name="y">
          -27 callsubr
          hstemhm
          44 534 hintmask 10110000
          75 -86 -52 callgsubr
          hintmask 11010000
          -73 callsubr
          hintmask 10110000
          -79 callgsubr
        </CharString>
        <CharString name="yacute">
          -27 callsubr
          245 -20 hstemhm
          44 534 hintmask 10111000
          188 678 -107 callgsubr
          -113 -764 -52 callgsubr
          hintmask 11011000
          -73 callsubr
          hintmask 10111000
          -79 callgsubr
        </CharString>
        <CharString name="ycircumflex">
          -27 callsubr
          148 -20 33 -20 hstemhm
          44 534 hintmask 10101100
          309 740 rmoveto
          141 -114 75 72 -204 -67 callsubr
          -7 hlineto
          hintmask 10110100
          -202 -169 rlineto
          hintmask 11001100
          59 -58 rlineto
          -96 -713 -52 callgsubr
          -73 callsubr
          hintmask 10101100
          -51 123 -59 166 -45 123 -125 -9 rcurveline
          42 -110 115 -293 51 -117 21 -8 rcurveline
          hintmask 11001100
          -31 -75 -35 -13 -132 -18 rrcurveto
          endchar
        </CharString>
        <CharString name="ydieresis">
          -27 callsubr
          102 -25 callgsubr
          135.5 -72 callgsubr
          hintmask 10111100
          135 639 -104 callsubr
          -308 -881 -52 callgsubr
          hintmask 11011100
          -73 callsubr
          hintmask 10111100
          -79 callgsubr
        </CharString>
        <CharString name="yen">
          0 224 -88 88 83 88 293 6 callsubr
          hstemhm
          250.5 120 hintmask 01101100
          370 136 rmoveto
          179 hlineto
          1 88 rlineto
          -181 33 hlineto
          25 50 rlineto
          156 88 -113 hlineto
          hintmask 01110100
          143 293 rlineto
          -124 hlineto
          -140 -323 rlineto
          hintmask 01101100
          -147 326 -129 -5 144 -291 rlineto
          -113 -88 157 hlineto
          24 -50 rlineto
          -33 -181 vlineto
          -1 -88 rlineto
          181 hlineto
          hintmask 10101100
          -1 -136 rlineto
          121 hlineto
          endchar
        </CharString>
        <CharString name="ygrave">
          -27 callsubr
          hstemhm
          44 534 hintmask 10110000
          410 621 -100 callgsubr
          -335 -707 -52 callgsubr
          hintmask 11010000
          -73 callsubr
          hintmask 10110000
          -79 callgsubr
        </CharString>
        <CharString name="z">
          -38 callsubr
          hstem
          82 469 vstem
          82 hmoveto
          -74 callsubr
        </CharString>
        <CharString name="zacute">
          -38 callsubr
          226 -20 hstem
          82 469 vstem
          184 674 -107 callgsubr
          -102 -674 rmoveto
          -74 callsubr
        </CharString>
        <CharString name="zcaron">
          -38 callsubr
          232 -20 hstem
          82 469 vstem
          318 615 -99 callgsubr
          -32 -771 rmoveto
          -74 callsubr
        </CharString>
        <CharString name="zdotaccent">
          -38 callsubr
          83 156 hstem
          255 -45 callgsubr
          vstem
          253 635 -76 callsubr
          -175 -791 rmoveto
          -74 callsubr
        </CharString>
        <CharString name="zero">
          -54 callgsubr
          -126 369 rmoveto
          158 44 90 90 65 41 -56 -92 18 vhcurveto
          -257 -134 rlineto
          -1 11 0 11 12 vvcurveto
          135 -270 rmoveto
          -64 -41 54 90 -19 hvcurveto
          257 133 rlineto
          -28 vlineto
          -158 -43 -91 -90 vhcurveto
          endchar
        </CharString>
        <CharString name="zero.alt">
          -54 callgsubr
          8 617 rmoveto
          90 44 -106 -163 -158 -43 -91 -90 -90 -45 106 164 158 44 90 90 hvcurveto
          endchar
        </CharString>
        <CharString name="zero.den">
          -244 -57 callsubr
          -244 -92 callsubr
        </CharString>
        <CharString name="zero.inf">
          -178 -57 callsubr
          -178 -92 callsubr
        </CharString>
        <CharString name="zero.num">
          461 -57 callsubr
          461 -92 callsubr
        </CharString>
        <CharString name="zero.small">
          -11 -57 callsubr
          -11 -92 callsubr
        </CharString>
        <CharString name="zero.sup">
          350 -57 callsubr
          350 -92 callsubr
        </CharString>
      <CharString index="0">
        rmoveto
        31 -54 81 31 133 68 74 59 rlinecurve
        -91 93 -60 -66 -104 -88 -64 -43 rlinecurve
        return
      </CharString>
      <CharString index="1">
        rmoveto
        7 -87 rlineto
        240 5 87 62 74 vvcurveto
        51 -49 43 -132 22 vhcurveto
        170 118 -7 76 rlineto
        -308 -82 hlineto
        200 2 rlineto
        -4 vlineto
        -164 -113 rlineto
        -49 vlineto
        139 -13 57 -23 -29 vvcurveto
        -30 -58 -18 -182 -5 vhcurveto
        return
      </CharString>
      <CharString index="2">
        rmoveto
        169 107 134 247 hvcurveto
        220 -1 -87 122 -157 hhcurveto
        -169 -107 -134 -248 -220 88 -121 157 hvcurveto
        11 618 rmoveto
        87 47 -89 -176 -167 -41 -82 -85 -86 -47 89 176 168 40 81 85 hvcurveto
        endchar
      </CharString>
      <CharString index="3">
        rmoveto
        83 78 65 105 62 hvcurveto
        -70 37 rlineto
        -70 -48 -40 -39 -54 hhcurveto
        -51 -39 34 80 -51 hvcurveto
        -85 -50 rlineto
        -108 59 75 -54 81 hhcurveto
        return
      </CharString>
      <CharString index="4">
        -90 69 -54 98 80 59 36 41 42 vhcurveto
        -132 18 rmoveto
        -57 -36 28 50 61 45 37 172 -18 hvcurveto
        1 -46 0 -37 2 -31 rrcurveto
        -27 -38 -46 -17 -43 hhcurveto
        endchar
      </CharString>
      <CharString index="5">
        113 7 rlineto
        -5 76 -6 87 108 vvcurveto
        216 -82 69 -333 5 vhcurveto
        -12 -104 237 -7 62 -27 7 -106 rlinecurve
        -234 9 -105 -89 -110 vvcurveto
        return
      </CharString>
      <CharString index="6">
        rmoveto
        147 91 96 159 hvcurveto
        450 -127 -472 vlineto
        -89 -32 -35 -70 -67 -42 43 99 vhcurveto
        454 -127 -459 vlineto
        -158 85 -88 142 vhcurveto
        endchar
      </CharString>
      <CharString index="7">
        rmoveto
        35 53 -61 45 -112 94 -62 61 rlinecurve
        -83 -100 77 -53 127 -67 79 -33 rlinecurve
        return
      </CharString>
      <CharString index="8">
        rmoveto
        8 hlineto
        201 169 -58 59 -138 -114 -141 115 -76 -73 rlineto
        return
      </CharString>
      <CharString index="9">
        rmoveto
        62 -19 63 64 30 96 -4 83 rlinecurve
        -147 -7 21 -66 3 -78 -28 -73 rlinecurve
        endchar
      </CharString>
      <CharString index="10">
        rmoveto
        99 83 63 92 129 -157 35 -108 -82 hvcurveto
        15 66 53 39 140 45 -32 81 rcurveline
        -184 -59 -88 -101 -127 vvcurveto
        -118 73 -63 106 vhcurveto
        9 77 rmoveto
        -53 -42 35 78 -1 hvcurveto
        93 48 85 -19 -70 vvcurveto
        -46 -35 -26 -47 vhcurveto
        endchar
      </CharString>
      <CharString index="11">
        rmoveto
        7 -63 rlineto
        hintmask 0010101110000000
        114 7 rlineto
        -7 126 -2 174 248 vvcurveto
        -123 hlineto
        hintmask 1000011110000000
        -90 callgsubr
        hintmask 1001001110000000
        -123 -7 rlineto
        -373 vlineto
        -135 61 -55 97 vhcurveto
        hintmask 0100011110000000
        76 56 35 39 44 hvcurveto
        endchar
      </CharString>
      <CharString index="12">
        338 83 -216 hlineto
        131 86 72 67 79 vvcurveto
        75 -72 60 -239 -1 vhcurveto
        -7 -85 rlineto
        170 -6 50 -23 -46 vvcurveto
        -59 -83 -59 -154 -95 vhcurveto
        return
      </CharString>
      <CharString index="13">
        -153 589 rmoveto
        9 hlineto
        26 -99 25 -101 24 -101 rrcurveto
        -160 hlineto
        25 101 25 101 26 99 rrcurveto
        endchar
      </CharString>
      <CharString index="14">
        rmoveto
        -71 callsubr
        hintmask 11011000
        -63 callsubr
        hintmask 11100100
        -42 callsubr
        hintmask 11011000
        -91 callgsubr
        hintmask 11100100
        -93 callsubr
      </CharString>
      <CharString index="15">
        rmoveto
        141 -114 75 72 -204 -67 callsubr
        -7 hlineto
        -202 -169 59 -58 rlineto
        return
      </CharString>
      <CharString index="16">
        -64 344 rmoveto
        24 26 21 48 51 26 -24 -31 -27 -23 -24 -36 -18 vhcurveto
        -50 24 -42 23 32 vvcurveto
        return
      </CharString>
      <CharString index="17">
        -179 2 -142 2 -103 vhcurveto
        -23 -34 -36 -15 -42 hhcurveto
        -57 -35 31 99 hvcurveto
        336 vlineto
        return
      </CharString>
      <CharString index="18">
        -14 95 -64 -21 28 -21 240.25 76.75 140 104 return
      </CharString>
      <CharString index="19">
        -309 194 259 93 -259 190 303 105 -430 -688 hlineto
        endchar
      </CharString>
      <CharString index="20">
        -82 callgsubr
        -77 -168 -64 callgsubr
        return
      </CharString>
      <CharString index="21">
        rmoveto
        102 -10 48 124 68 122 81 119 rlinecurve
        81 -340 vlineto
        -8 -84 rlineto
        247 hlineto
        2 -5 -84 -114 -66 -113 -50 -120 rlinecurve
        return
      </CharString>
      <CharString index="22">
        -42 -52 97 -71 hhcurveto
        -61 -54 -65 -92 -40 hvcurveto
        64 -30 rlineto
        59 29 26 28 21 hhcurveto
        return
      </CharString>
      <CharString index="23">
        -192 460 -309 hlineto
        -10 -86 195 -9 rlineto
        -365 -193 return
      </CharString>
      <CharString index="24">
        rmoveto
        hintmask 10011011
        126 -250 rlineto
        hintmask 00110111
        136 17 -162 297 rlineto
        64 47 48 60 87 vvcurveto
        142 -107 91 -340 -44 vhcurveto
        hintmask 01011011
        -687 125 237 vlineto
        89 vmoveto
        265 vlineto
        135 18 62 -48 -91 vvcurveto
        -61 -30 -48 -47 -32 vhcurveto
        endchar
      </CharString>
      <CharString index="25">
        151 546 -106 callgsubr
        return
      </CharString>
      <CharString index="26">
        -249 -14 -77 58 142 vvcurveto
        107 42 63 276 -9 vhcurveto
        -8 117 rlineto
        -330 -2 -102 -138 -154 vvcurveto
        return
      </CharString>
      <CharString index="27">
        -13 103 158.5 74.5 144 100 return
      </CharString>
      <CharString index="28">
        -51 123 -59 166 -45 123 -125 -9 rcurveline
        42 -110 115 -293 51 -117 21 -8 rcurveline
        -31 -75 -35 -13 -132 -18 rrcurveto
        endchar
      </CharString>
      <CharString index="29">
        rmoveto
        59 55 65 92 40 hvcurveto
        -64 30 rlineto
        -60 -30 -25 -28 -22 hhcurveto
        return
      </CharString>
      <CharString index="30">
        11 -21 31 -21 28 -21 231.5 89 267.21 103.37 -11.08 -20 hstemhm
        97 125 return
      </CharString>
      <CharString index="31">
        17 -21 25 13 callgsubr
        188 92 301 104 return
      </CharString>
      <CharString index="32">
        rmoveto
        57 36 -31 -98 hvcurveto
        -333 123 376 vlineto
        135 -62 56 -97 -76 -57 -35 -40 -44 vhcurveto
        return
      </CharString>
      <CharString index="33">
        rmoveto
        13 101 rlineto
        -168 3 -53 20 87 vvcurveto
        256 209 93 -209 160 vlineto
        -122 -11 rlineto
        -149 -102 vlineto
        -11 -93 rlineto
        113 -275 hlineto
        -142 81 -55 249 5 vhcurveto
        return
      </CharString>
      <CharString index="34">
        469 hlineto
        9 110 -339 -2 330 473 rlineto
        107 -458 vlineto
        -9 -110 330 2 -332 -473 rlineto
        endchar
      </CharString>
      <CharString index="35">
        125 121.5 125 return
      </CharString>
      <CharString index="36">
        92 369.5 90.5 return
      </CharString>
      <CharString index="37">
        rmoveto
        -183 283 vlineto
        8 106 rlineto
        -186 hlineto
        hintmask 10111000
        194 147 93 -147 190 180 105 -366 vlineto
        -69 -227 -75 -233 -65 -228 rrcurveto
        121 hlineto
        hintmask 11111000
        16 61 17 61 17 61 rrcurveto
        113 400 rmoveto
        6 -307 -92 hlineto
        29 103 30 103 27 101 rrcurveto
        endchar
      </CharString>
      <CharString index="38">
        70 -47 39 56 rlineto
        -20 34 39 -10 44 hhcurveto
        -112 303 rmoveto
        123 51 61 75 31 27 -10 -19 21 vhcurveto
        -188 -269 rlineto
        -11 30 -6 38 46 vvcurveto
        134 -204 rmoveto
        -30 -27 10 19 -21 hvcurveto
        188 268 rlineto
        11 -30 6 -37 -45 vvcurveto
        -124 -52 -61 -75 vhcurveto
        endchar
      </CharString>
      <CharString index="39">
        64.6 140 77 hstem
        131 91 177 93 vstem
        187 return
      </CharString>
      <CharString index="40">
        rlineto
        66 -34 32 -28 -22 vvcurveto
        -21 -35 -14 -87 -10 vhcurveto
        8 -94 rlineto
        149 14 75 49 61 vvcurveto
        return
      </CharString>
      <CharString index="41">
        rmoveto
        -100 callsubr
        endchar
      </CharString>
      <CharString index="42">
        hstem
        21 callsubr
        136.5 92 vstem
        return
      </CharString>
      <CharString index="43">
        rmoveto
        -79 477 79 vlineto
        return
      </CharString>
      <CharString index="44">
        rmoveto
        90 -276 rlineto
        111 hlineto
        17 120 26 223 11 209 rrcurveto
        -115 hlineto
        return
      </CharString>
      <CharString index="45">
        -114 -6 rlineto
        7 -126 2 -175 -248 vvcurveto
        123 hlineto
        return
      </CharString>
      <CharString index="46">
        -17 109 596 -20 hstem
        80 127 211 127 vstem
        return
      </CharString>
      <CharString index="47">
        105.68 -10.03 -20 hstemhm
        91 124 228 128 return
      </CharString>
      <CharString index="48">
        -20 callsubr
        hstem
        114 127 return
      </CharString>
      <CharString index="49">
        rmoveto
        186 -237 88 71 -181 230 185 222 -88 72 -184 -238 rlineto
        266 -120 rmoveto
        185 -237 89 71 -183 229 186 223 -87 72 -185 -238 rlineto
        endchar
      </CharString>
      <CharString index="50">
        18 callsubr
        hstem
        52 131 259 131 vstem
        return
      </CharString>
      <CharString index="51">
        rmoveto
        84 -75 rlineto
        237 201 93 163 161 vvcurveto
        158 -92 159 -233 200 vhcurveto
        -85 -77 rlineto
        214 -174 74 -135 -136 vvcurveto
        -135 -72 -133 -220 -177 vhcurveto
        endchar
      </CharString>
      <CharString index="52">
        rmoveto
        -83 74 rlineto
        -236 -201 -93 -162 -161 vvcurveto
        -158 91 -159 233 -200 vhcurveto
        85 76 rlineto
        -214 174 -74 136 136 vvcurveto
        135 72 133 219 177 vhcurveto
        endchar
      </CharString>
      <CharString index="53">
        -14 99 518 100 hstem
        61 117 268 117 vstem
        304 -14 rmoveto
        160 99 147 222 217 -81 131 -161 -160 -100 -148 -222 -216 81 -131 162 hvcurveto
        return
      </CharString>
      <CharString index="54">
        hstemhm
        134 95 -87 97 151 92 -89 98 return
      </CharString>
      <CharString index="55">
        rmoveto
        10 -111 199 19 59 52 79 222 rlinecurve
        return
      </CharString>
      <CharString index="56">
        -9.13 104.69 -74.56 -21 return
      </CharString>
      <CharString index="57">
        -6 callgsubr
        217 120 return
      </CharString>
      <CharString index="58">
        -81 callsubr
        vhcurveto
        hintmask 1101111010100000
        -39 callsubr
        hintmask 1011111100100000
        -65 -26 -37 -38 -51 vvcurveto
        hintmask 1011111100010000
        -66 64 -47 105 vhcurveto
        return
      </CharString>
      <CharString index="59">
        0 8 -2 3 -4 -4 -2 -3 -12 callsubr
        0 -9 2 -3 4 4 2 3 -12 callsubr
        return
      </CharString>
      <CharString index="60">
        362.5 89.5 return
      </CharString>
      <CharString index="61">
        0 167 521 -20 hstem
        50 123 284 119 vstem
        return
      </CharString>
      <CharString index="62">
        127.5 return
      </CharString>
      <CharString index="63">
        -30 callsubr
        23 -20 hstemhm
        249 128 hintmask 10110000
        return
      </CharString>
      <CharString index="64">
        -9.71 98.71 488 121 return
      </CharString>
      <CharString index="65">
        -244 71 178 -21 31 -21 151 71 return
      </CharString>
      <CharString index="66">
        -7 callsubr
        200 123 return
      </CharString>
      <CharString index="67">
        -34 56 -69 18 -131 6 -9 -103 rcurveline
        162 -7 30 -23 4 -106 rrcurveto
        -156 -4 -62 -66 -116 vvcurveto
        -89 47 -52 75 61 48 35 41 30 vhcurveto
        return
      </CharString>
      <CharString index="68">
        428 hlineto
        11 106 rlineto
        -311 582 -11 callgsubr
        return
      </CharString>
      <CharString index="69">
        hintmask 11010000
        84 hmoveto
        -33 callsubr
        return
      </CharString>
      <CharString index="70">
        114.5 return
      </CharString>
      <CharString index="71">
        rmoveto
        9 101 -189 3 -30 36 -1 111 rlinecurve
        228 5 rlineto
        196 13 -52 116 -110 hhcurveto
        -59 -45 -29 -54 -30 hvcurveto
        return
      </CharString>
      <CharString index="72">
        582 198 106 -519 vlineto
        -9 -106 rlineto
        202 -582 hlineto
        return
      </CharString>
      <CharString index="73">
        0 146 -125 -21 552 -20 return
      </CharString>
      <CharString index="74">
        499 hlineto
        10 92 rlineto
        return
      </CharString>
      <CharString index="75">
        -215 -373 rmoveto
        -35 -20 26 49 54 27 32 78 -3 hvcurveto
        -46 3 -42 11 -35 vhcurveto
        -22 -16 -23 -13 -25 hhcurveto
        endchar
      </CharString>
      <CharString index="76">
        5 callgsubr
        391 94 vstem
        151 return
      </CharString>
      <CharString index="77">
        79 94 -65 callsubr
        hstemhm
        return
      </CharString>
      <CharString index="78">
        -104 callsubr
        hintmask 11110010
        return
      </CharString>
</ttFont>
